<svg width="26" height="26" viewBox="0 0 26 26" fill="none" xmlns="http://www.w3.org/2000/svg">
<path d="M11.3479 18.9435C11.7014 19.3678 12.332 19.4251 12.7563 19.0715C13.1805 18.718 13.2379 18.0874 12.8843 17.6631L11.3479 18.9435ZM7.69662 13L6.9284 12.3598C6.61937 12.7306 6.61937 13.2693 6.9284 13.6401L7.69662 13ZM12.8843 8.33681C13.2379 7.91253 13.1805 7.28197 12.7563 6.92841C12.332 6.57484 11.7014 6.63216 11.3479 7.05644L12.8843 8.33681ZM18.3033 14C18.8556 14 19.3033 13.5522 19.3033 13C19.3033 12.4477 18.8556 12 18.3033 12L18.3033 14ZM12.8843 17.6631L8.46485 12.3598L6.9284 13.6401L11.3479 18.9435L12.8843 17.6631ZM8.46485 13.6401L12.8843 8.33681L11.3479 7.05644L6.9284 12.3598L8.46485 13.6401ZM7.69662 14L18.3033 14L18.3033 12L7.69662 12V14ZM5.22183 20.7782C0.926062 16.4824 0.926062 9.51759 5.22183 5.22183L3.80762 3.80762C-1.2692 8.88443 -1.2692 17.1156 3.80762 22.1924L5.22183 20.7782ZM5.22183 5.22183C9.51759 0.926062 16.4824 0.926062 20.7782 5.22183L22.1924 3.80762C17.1156 -1.2692 8.88443 -1.2692 3.80762 3.80762L5.22183 5.22183ZM20.7782 5.22183C25.0739 9.51759 25.0739 16.4824 20.7782 20.7782L22.1924 22.1924C27.2692 17.1156 27.2692 8.88443 22.1924 3.80762L20.7782 5.22183ZM20.7782 20.7782C16.4824 25.0739 9.51759 25.0739 5.22183 20.7782L3.80762 22.1924C8.88443 27.2692 17.1156 27.2692 22.1924 22.1924L20.7782 20.7782Z" fill="#18191C"/>
</svg>
