<svg width="26" height="26" viewBox="0 0 26 26" fill="none" xmlns="http://www.w3.org/2000/svg">
<path d="M14.6521 7.05651C14.2986 6.63224 13.668 6.57491 13.2437 6.92848C12.8195 7.28204 12.7621 7.91261 13.1157 8.33688L14.6521 7.05651ZM18.3034 13L19.0716 13.6402C19.3806 13.2694 19.3806 12.7307 19.0716 12.3599L18.3034 13ZM13.1157 17.6632C12.7621 18.0875 12.8195 18.718 13.2437 19.0716C13.668 19.4252 14.2986 19.3678 14.6521 18.9436L13.1157 17.6632ZM7.6967 12C7.14442 12 6.6967 12.4478 6.6967 13C6.6967 13.5523 7.14442 14 7.6967 14L7.6967 12ZM13.1157 8.33688L17.5352 13.6402L19.0716 12.3599L14.6521 7.05651L13.1157 8.33688ZM17.5352 12.3599L13.1157 17.6632L14.6521 18.9436L19.0716 13.6402L17.5352 12.3599ZM18.3034 12L7.6967 12L7.6967 14L18.3034 14V12ZM20.7782 5.22183C25.0739 9.51759 25.0739 16.4824 20.7782 20.7782L22.1924 22.1924C27.2692 17.1156 27.2692 8.88443 22.1924 3.80761L20.7782 5.22183ZM20.7782 20.7782C16.4824 25.0739 9.51759 25.0739 5.22183 20.7782L3.80761 22.1924C8.88443 27.2692 17.1156 27.2692 22.1924 22.1924L20.7782 20.7782ZM5.22183 20.7782C0.926058 16.4824 0.926058 9.51759 5.22183 5.22183L3.80761 3.80761C-1.2692 8.88443 -1.2692 17.1156 3.80761 22.1924L5.22183 20.7782ZM5.22183 5.22183C9.51759 0.926058 16.4824 0.926058 20.7782 5.22183L22.1924 3.80761C17.1156 -1.2692 8.88443 -1.2692 3.80761 3.80761L5.22183 5.22183Z" fill="#18191C"/>
</svg>
