<?xml version="1.0" encoding="utf-8"?>
<!-- Generator: Adobe Illustrator 15.1.0, SVG Export Plug-In . SVG Version: 6.00 Build 0)  -->
<!DOCTYPE svg PUBLIC "-//W3C//DTD SVG 1.1//EN" "http://www.w3.org/Graphics/SVG/1.1/DTD/svg11.dtd">
<svg version="1.1" id="Layer_1" xmlns="http://www.w3.org/2000/svg" xmlns:xlink="http://www.w3.org/1999/xlink" x="0px" y="0px"
	 width="200px" height="200px" viewBox="-283.5 612.5 200 200" enable-background="new -283.5 612.5 200 200" xml:space="preserve">
<title>Layer 1</title>
<path id="svg_1" fill="#85868B" d="M-205.973,672.307l-2.188,6.559h-15.703c-7.42,0-13.453,6.033-13.453,13.453v53.818
	c0,7.422,6.033,13.453,13.453,13.453h80.727c7.42,0,13.453-6.031,13.453-13.453v-53.818c0-7.42-6.033-13.453-13.453-13.453h-15.703
	l-2.188-6.559c-1.367-4.121-5.213-6.896-9.564-6.896h-25.816C-200.76,665.41-204.607,668.186-205.973,672.307z M-183.5,699.047
	c11.145-0.004,20.184,9.027,20.189,20.174c0.002,11.146-9.029,20.186-20.176,20.188c-0.004,0-0.01,0-0.014,0
	c-11.146,0.004-20.186-9.027-20.189-20.174c-0.004-11.145,9.029-20.184,20.176-20.188
	C-183.51,699.047-183.506,699.047-183.5,699.047z"/>
</svg>
