<?xml version="1.0" encoding="utf-8"?>
<!-- Generator: Adobe Illustrator 15.1.0, SVG Export Plug-In . SVG Version: 6.00 Build 0)  -->
<!DOCTYPE svg PUBLIC "-//W3C//DTD SVG 1.1//EN" "http://www.w3.org/Graphics/SVG/1.1/DTD/svg11.dtd">
<svg version="1.1" id="Layer_1" xmlns="http://www.w3.org/2000/svg" xmlns:xlink="http://www.w3.org/1999/xlink" x="0px" y="0px"
	 width="60px" height="60px" viewBox="0 0 60 60" enable-background="new 0 0 60 60" xml:space="preserve">
<g>
	<path fill="#85868B" d="M34.342,52.021c-0.529-0.213-1.129,0.045-1.342,0.573c-0.178,0.441-0.626,0.738-1.117,0.738h-3.767
		c-0.49,0-0.939-0.297-1.117-0.738c-0.211-0.528-0.812-0.785-1.34-0.573c-0.528,0.211-0.786,0.813-0.573,1.34
		c0.495,1.236,1.685,2.033,3.03,2.033h3.767c1.346,0,2.536-0.797,3.031-2.033C35.125,52.833,34.869,52.231,34.342,52.021z"/>
	<path fill="#85868B" d="M46.449,46.709c-0.139-0.714-0.428-1.389-0.849-1.98c-0.422-0.592-0.966-1.087-1.592-1.451
		c0.232-0.19,0.448-0.4,0.646-0.629c0.482-0.56,0.838-1.217,1.042-1.928c0.206-0.709,0.255-1.455,0.144-2.187
		c-0.361-2.403-1.385-4.65-2.96-6.496c-1.172-1.377-2.621-2.493-4.249-3.279c1.984-2.118,3.201-4.962,3.201-8.086
		c0-5.406-3.644-9.977-8.604-11.385c0.676-0.807,1.043-1.814,1.043-2.879c0.002-2.097-1.703-3.802-3.8-3.802h-0.001
		c-0.846,0-1.639,0.275-2.231,0.774c-0.655,0.552-1.016,1.328-1.016,2.185c0,0.569,0.461,1.031,1.031,1.031
		c0.568,0,1.03-0.462,1.03-1.031c0-0.246,0.096-0.45,0.283-0.608c0.222-0.187,0.542-0.289,0.903-0.289l0,0
		c0.959,0,1.74,0.78,1.74,1.739c0.002,0.32-0.061,0.636-0.185,0.931c-0.122,0.296-0.303,0.563-0.527,0.789
		c-0.226,0.227-0.494,0.406-0.79,0.528c-0.294,0.122-0.611,0.185-0.931,0.184l0,0c-0.024,0-0.05,0.002-0.074,0.004
		c-6.388,0.158-11.536,5.404-11.536,11.829c0,3.124,1.217,5.968,3.202,8.086c-1.629,0.785-3.076,1.902-4.25,3.279
		c-1.574,1.846-2.598,4.093-2.96,6.496c-0.11,0.731-0.061,1.478,0.143,2.187c0.205,0.711,0.561,1.368,1.043,1.928
		c0.197,0.229,0.413,0.438,0.646,0.629c-0.628,0.363-1.171,0.859-1.592,1.451c-0.421,0.592-0.711,1.267-0.85,1.98
		c-0.138,0.715-0.122,1.452,0.048,2.16c0.171,0.708,0.491,1.371,0.94,1.945l2.208,2.821c0.892,1.14,2.247,1.753,3.622,1.753
		c0.781,0,1.567-0.198,2.279-0.609c1.965-1.134,2.807-3.577,1.959-5.682l-1.34-3.322c-0.089-0.221-0.194-0.434-0.313-0.64h7.563
		c0.57,0,1.031-0.462,1.031-1.031s-0.461-1.031-1.031-1.031h-9.522V40.9c0-0.135,0.054-0.264,0.149-0.358
		c0.095-0.095,0.224-0.149,0.358-0.149h16.999c0.135,0,0.264,0.055,0.358,0.149c0.097,0.095,0.149,0.224,0.149,0.358v2.317
		c-1.031,0.563-1.834,1.468-2.273,2.558l-1.34,3.322c-0.849,2.104-0.006,4.548,1.959,5.682c0.711,0.411,1.498,0.609,2.279,0.609
		c1.373,0,2.729-0.613,3.621-1.753l2.207-2.821c0.45-0.574,0.771-1.237,0.941-1.945C46.571,48.161,46.589,47.424,46.449,46.709z
		 M20.229,20.673c0-5.388,4.383-9.771,9.771-9.771c5.388,0,9.771,4.383,9.771,9.771S35.389,30.443,30,30.443
		C24.612,30.443,20.229,26.061,20.229,20.673z M21.354,46.546l1.34,3.324c0.466,1.155,0.003,2.5-1.078,3.124
		s-2.476,0.354-3.246-0.63l-2.208-2.821c-0.267-0.341-0.458-0.735-0.559-1.157c-0.102-0.42-0.111-0.858-0.028-1.283
		c0.082-0.426,0.255-0.829,0.507-1.182c0.251-0.354,0.576-0.647,0.952-0.864c0.375-0.217,0.792-0.35,1.224-0.392
		c0.431-0.042,0.866,0.009,1.276,0.151c0.41,0.142,0.785,0.368,1.099,0.666C20.946,45.781,21.192,46.145,21.354,46.546z
		 M38.506,36.269c-0.569,0-1.031,0.462-1.031,1.031v1.031H22.532V37.3c0-0.569-0.462-1.031-1.031-1.031S20.47,36.73,20.47,37.3
		v1.248c-0.905,0.397-1.539,1.303-1.539,2.353v1.457c-0.784-0.079-1.508-0.456-2.022-1.053c-0.289-0.337-0.502-0.73-0.624-1.153
		c-0.123-0.426-0.152-0.872-0.086-1.309c0.59-3.924,3.206-7.166,6.878-8.579c1.948,1.409,4.339,2.242,6.922,2.242
		c2.583,0,4.975-0.833,6.922-2.242c3.673,1.413,6.289,4.655,6.879,8.579c0.066,0.437,0.037,0.883-0.085,1.309
		c-0.123,0.423-0.337,0.816-0.625,1.153c-0.514,0.597-1.238,0.974-2.022,1.053V40.9c0-1.048-0.631-1.951-1.531-2.35V37.3
		C39.537,36.73,39.076,36.269,38.506,36.269z M43.838,49.543l-2.209,2.821c-0.77,0.984-2.165,1.254-3.245,0.63
		c-1.081-0.624-1.544-1.969-1.077-3.126l1.339-3.322c0.162-0.401,0.408-0.765,0.724-1.063c0.313-0.298,0.688-0.526,1.097-0.667
		c0.41-0.142,0.846-0.192,1.277-0.15c0.431,0.042,0.849,0.175,1.224,0.392c0.374,0.217,0.7,0.511,0.952,0.864
		c0.25,0.353,0.423,0.756,0.506,1.181c0.083,0.426,0.072,0.864-0.028,1.284C44.295,48.808,44.104,49.202,43.838,49.543z"/>
	<path fill="#85868B" d="M35.34,43.375c-0.192-0.191-0.459-0.302-0.729-0.302c-0.271,0-0.538,0.11-0.729,0.302
		c-0.193,0.195-0.302,0.455-0.303,0.729c0,0.271,0.111,0.537,0.303,0.729c0.19,0.192,0.457,0.303,0.729,0.303
		c0.271,0,0.537-0.11,0.729-0.303c0.191-0.191,0.301-0.457,0.301-0.729S35.531,43.567,35.34,43.375z M32.843,24.194
		c-0.442-0.359-1.093-0.291-1.451,0.152c-0.342,0.423-0.85,0.665-1.392,0.665c-0.267,0-0.531-0.059-0.771-0.175
		c-0.241-0.115-0.453-0.283-0.621-0.49c-0.358-0.442-1.008-0.51-1.45-0.152s-0.511,1.008-0.151,1.45
		c0.735,0.908,1.827,1.428,2.994,1.428c1.167,0,2.258-0.521,2.995-1.428C33.354,25.202,33.286,24.552,32.843,24.194z M27.394,19.944
		c-0.935-0.936-2.457-0.936-3.393,0c-0.402,0.403-0.402,1.055,0,1.458c0.403,0.402,1.056,0.402,1.458,0
		c0.063-0.063,0.148-0.098,0.238-0.098c0.089,0,0.175,0.035,0.238,0.098c0.096,0.096,0.209,0.172,0.334,0.224
		c0.125,0.051,0.259,0.078,0.395,0.078c0.135,0,0.269-0.026,0.395-0.078c0.125-0.052,0.238-0.128,0.334-0.224
		C27.796,20.999,27.796,20.347,27.394,19.944z M35.998,19.944c-0.935-0.936-2.457-0.936-3.394,0c-0.401,0.403-0.401,1.055,0,1.458
		c0.096,0.096,0.209,0.172,0.334,0.224c0.126,0.051,0.261,0.078,0.396,0.078s0.269-0.026,0.394-0.078
		c0.126-0.052,0.238-0.128,0.335-0.224c0.063-0.063,0.149-0.098,0.237-0.098c0.09,0,0.176,0.035,0.238,0.098
		c0.403,0.402,1.056,0.402,1.459,0C36.4,20.999,36.4,20.347,35.998,19.944z"/>
</g>
</svg>