<?xml version="1.0" encoding="utf-8"?>
<!-- Generator: Adobe Illustrator 15.1.0, SVG Export Plug-In . SVG Version: 6.00 Build 0)  -->
<!DOCTYPE svg PUBLIC "-//W3C//DTD SVG 1.1//EN" "http://www.w3.org/Graphics/SVG/1.1/DTD/svg11.dtd">
<svg version="1.1" id="Layer_1" xmlns="http://www.w3.org/2000/svg" xmlns:xlink="http://www.w3.org/1999/xlink" x="0px" y="0px"
	 width="60px" height="60px" viewBox="0 0 60 60" enable-background="new 0 0 60 60" xml:space="preserve">
<g>
	<path fill="#85868B" d="M17.071,34.818c0.708,0,1.282-0.573,1.282-1.279c0-0.708-0.574-1.281-1.282-1.281s-1.282,0.573-1.282,1.281
		C15.789,34.245,16.363,34.818,17.071,34.818z"/>
	<path fill="#85868B" d="M30,39.944c0.704,0,1.283-0.573,1.283-1.279c0-0.708-0.577-1.281-1.283-1.281
		c-0.708,0-1.283,0.573-1.283,1.281C28.717,39.371,29.292,39.944,30,39.944z"/>
	<path fill="#85868B" d="M17.071,39.663c0.708,0,1.282-0.572,1.282-1.281c0-0.708-0.574-1.281-1.282-1.281s-1.282,0.573-1.282,1.281
		C15.789,39.091,16.363,39.663,17.071,39.663z"/>
	<path fill="#85868B" d="M52.256,28.619v-7.553c0.039-1.249-0.17-2.493-0.621-3.661c-0.449-1.166-1.133-2.229-1.998-3.128
		c-0.873-0.897-1.912-1.612-3.064-2.1c-1.152-0.488-2.387-0.739-3.637-0.739c-1.254,0-2.492,0.251-3.639,0.739
		c-1.152,0.488-2.195,1.202-3.064,2.1c-0.869,0.898-1.553,1.962-2,3.128c-0.449,1.168-0.662,2.412-0.625,3.661v1.174
		c-0.795-0.647-1.748-1.073-2.764-1.232c-1.016-0.161-2.055-0.049-3.012,0.322c-0.959,0.372-1.801,0.991-2.445,1.794
		c-0.642,0.803-1.059,1.76-1.21,2.778c-0.785-0.069-1.416,0-3.883,0v-0.75c1.63-0.744,2.955-2.025,3.759-3.628
		c0.803-1.604,1.03-3.432,0.649-5.185c-0.383-1.75-1.353-3.318-2.745-4.442c-1.401-1.123-3.14-1.737-4.932-1.737
		c-1.791,0-3.528,0.614-4.926,1.737c-1.394,1.124-2.364,2.692-2.746,4.442c-0.383,1.753-0.152,3.581,0.65,5.185
		c0.802,1.603,2.128,2.884,3.755,3.628v0.699h-3.396c-1.229,0.004-2.406,0.494-3.274,1.362c-0.867,0.871-1.355,2.048-1.355,3.28
		v14.715c0.002,1.225,0.491,2.402,1.359,3.27c0.866,0.869,2.044,1.358,3.271,1.361h39.274c1.229-0.003,2.402-0.492,3.27-1.361
		c0.867-0.867,1.357-2.045,1.361-3.27V32.435c0-0.752-0.184-1.492-0.533-2.155C53.385,29.613,52.877,29.043,52.256,28.619z
		 M52.324,41.362h-2.719v-3.037c0-0.256-0.102-0.507-0.281-0.687c-0.182-0.181-0.43-0.282-0.686-0.282
		c-0.262,0-0.51,0.102-0.686,0.282c-0.188,0.185-0.285,0.431-0.285,0.687v9.571h-9.705c0.266-0.508,0.406-1.069,0.414-1.643V35.733
		c0-0.951-0.377-1.859-1.049-2.53s-1.58-1.049-2.527-1.051h-2.188v-0.047c0.904-0.469,1.676-1.155,2.242-2.001
		c0.404-0.233,0.863-0.358,1.332-0.358h3.602c0.156,0.502,0.434,0.958,0.805,1.33c0.373,0.37,0.83,0.648,1.33,0.805v4.747
		c0,0.262,0.102,0.506,0.283,0.686c0.186,0.185,0.434,0.282,0.689,0.282s0.502-0.102,0.684-0.282
		c0.186-0.185,0.285-0.428,0.285-0.686v-4.747c0.502-0.156,0.957-0.431,1.33-0.805c0.369-0.372,0.648-0.828,0.805-1.33h3.604
		c0.352-0.006,0.707,0.06,1.041,0.193c0.33,0.134,0.631,0.329,0.885,0.58c0.256,0.252,0.455,0.549,0.592,0.878
		c0.139,0.327,0.209,0.681,0.209,1.04v8.925H52.324z M25.205,47.896c-0.434,0-0.854-0.172-1.159-0.482
		c-0.311-0.307-0.481-0.725-0.481-1.16V35.733c0-0.434,0.171-0.854,0.481-1.159c0.306-0.307,0.726-0.481,1.159-0.481h2.378
		c0.188,0.49,0.521,0.911,0.954,1.207c0.435,0.297,0.948,0.456,1.472,0.456c0.524,0,1.036-0.159,1.47-0.456
		c0.436-0.296,0.768-0.719,0.957-1.207h2.379c0.436,0,0.85,0.175,1.162,0.481c0.305,0.306,0.477,0.726,0.477,1.159v10.521
		c0,0.436-0.172,0.854-0.477,1.16c-0.313,0.311-0.727,0.482-1.162,0.482H25.205z M33.766,25.707
		c0.119,0.365,0.178,0.743,0.184,1.129c-0.012,1.041-0.432,2.039-1.17,2.774c-0.738,0.738-1.738,1.154-2.778,1.164
		c-0.88-0.001-1.733-0.298-2.425-0.844c-0.69-0.543-1.18-1.302-1.391-2.155C28.849,27.764,31.465,27.051,33.766,25.707z
		 M29.328,32.679c0.447,0.049,0.896,0.049,1.341,0v0.444c0,0.087-0.014,0.175-0.049,0.259c-0.034,0.081-0.081,0.157-0.145,0.219
		c-0.064,0.063-0.138,0.111-0.218,0.143c-0.08,0.032-0.171,0.051-0.258,0.049c-0.18,0-0.352-0.071-0.475-0.195
		c-0.124-0.127-0.197-0.295-0.197-0.474V32.679z M42.92,25.881c-0.961,0-1.891-0.318-2.648-0.905
		c-0.758-0.586-1.297-1.408-1.535-2.337c1.482,0.111,2.975-0.118,4.352-0.675c1.381-0.554,2.613-1.42,3.605-2.529
		c0.373,0.66,0.563,1.404,0.555,2.158c-0.008,0.756-0.211,1.495-0.594,2.147c-0.381,0.651-0.926,1.19-1.584,1.566
		C44.418,25.684,43.674,25.881,42.92,25.881z M42.92,27.822c0.445,0,0.895-0.047,1.326-0.146v1.087
		c-0.025,0.331-0.18,0.642-0.426,0.866c-0.244,0.226-0.564,0.352-0.896,0.352c-0.334,0-0.656-0.124-0.898-0.352
		c-0.246-0.225-0.4-0.535-0.426-0.866v-1.087c0.436,0.1,0.885,0.148,1.328,0.146H42.92z M42.92,13.68
		c1.957,0,3.836,0.779,5.223,2.164s2.162,3.266,2.162,5.223v6.796c-0.225-0.042-0.451-0.065-0.68-0.069h-3.424v-0.912
		c0.811-0.492,1.496-1.164,2.008-1.962c0.508-0.797,0.834-1.7,0.949-2.644c0.109-0.94,0.006-1.896-0.303-2.789
		c-0.309-0.895-0.818-1.711-1.49-2.38c-0.105-0.104-0.23-0.18-0.373-0.229c-0.139-0.047-0.287-0.063-0.434-0.043
		c-0.145,0.019-0.283,0.07-0.408,0.15c-0.121,0.082-0.223,0.189-0.299,0.314c-2.553,4.24-7.766,3.328-8.039,3.289
		c-0.139-0.026-0.281-0.02-0.422,0.015c-0.135,0.036-0.264,0.101-0.373,0.19c-0.113,0.091-0.203,0.203-0.266,0.332
		c-0.059,0.131-0.096,0.271-0.096,0.414c0.004,1.074,0.279,2.127,0.811,3.063c0.523,0.934,1.283,1.716,2.203,2.278v0.908h-3.877
		c0.063-0.316,0.096-0.643,0.1-0.97c-0.004-0.66-0.119-1.317-0.34-1.942v-3.811c0-1.956,0.777-3.834,2.158-5.219
		c1.383-1.386,3.262-2.166,5.217-2.168H42.92z M30,22.883c0.513,0,1.027,0.102,1.506,0.299c0.479,0.198,0.906,0.489,1.27,0.857
		c-1.996,1.17-4.266,1.789-6.581,1.794c0.221-0.843,0.712-1.59,1.402-2.124C28.284,23.179,29.13,22.885,30,22.883z M21.991,14.758
		c0.534,0.787,0.868,1.695,0.972,2.641c-1.294,0.235-2.633,0.052-3.814-0.524C20.134,16.221,21.085,15.516,21.991,14.758z
		 M17.068,12.118c1.298-0.004,2.56,0.427,3.585,1.223c-5.466,4.455-8.436,4.328-9.465,4.066c0.155-1.451,0.843-2.796,1.929-3.772
		C14.202,12.659,15.609,12.118,17.068,12.118z M11.323,19.417c0.271,0.037,0.543,0.055,0.816,0.057
		c1.733-0.067,3.427-0.549,4.94-1.397c1.511,0.84,3.195,1.315,4.923,1.389c0.268-0.002,0.539-0.021,0.804-0.057
		c-0.19,0.798-0.548,1.553-1.043,2.205c-0.499,0.655-1.127,1.198-1.848,1.594c-0.721,0.398-1.516,0.64-2.333,0.711
		c-0.821,0.071-1.647-0.03-2.426-0.298c-0.938-0.324-1.78-0.881-2.45-1.615C12.036,21.271,11.563,20.382,11.323,19.417z
		 M17.068,25.881c0.431-0.006,0.86-0.046,1.282-0.127v1.067c-0.028,0.333-0.181,0.64-0.425,0.866
		c-0.247,0.226-0.565,0.352-0.9,0.352c-0.332,0-0.652-0.126-0.897-0.352c-0.246-0.227-0.397-0.533-0.426-0.866v-1.067
		C16.152,25.838,16.612,25.881,17.068,25.881z M10.362,27.822h3.603c0.201,0.664,0.614,1.245,1.171,1.658
		c0.558,0.416,1.235,0.639,1.93,0.639c0.696,0,1.37-0.227,1.93-0.639s0.971-0.994,1.173-1.658c1.344-0.072,2.691-0.072,4.038,0
		c0.161,0.908,0.532,1.77,1.087,2.508c0.55,0.74,1.27,1.342,2.097,1.753v0.044h-2.185c-0.947,0.005-1.859,0.382-2.528,1.055
		c-0.671,0.67-1.048,1.578-1.052,2.526v10.54c0.007,0.576,0.153,1.134,0.419,1.642h-9.706V38.32c0-0.258-0.104-0.506-0.284-0.688
		c-0.183-0.182-0.43-0.284-0.688-0.284s-0.504,0.104-0.687,0.284c-0.183,0.182-0.284,0.43-0.284,0.688v3.037H7.674v-10.87
		c0-0.713,0.284-1.396,0.788-1.901s1.188-0.789,1.901-0.789L10.362,27.822L10.362,27.822z M7.674,45.205v-1.939h2.719v4.59
		c-0.711,0.007-1.398-0.268-1.906-0.762C7.978,46.598,7.686,45.916,7.674,45.205z M49.637,47.896v-4.593h2.688v1.941
		c-0.012,0.708-0.299,1.38-0.803,1.878C51.021,47.615,50.34,47.896,49.637,47.896z"/>
</g>
</svg>
