<?xml version="1.0" encoding="utf-8"?>
<!-- Generator: Adobe Illustrator 15.1.0, SVG Export Plug-In . SVG Version: 6.00 Build 0)  -->
<!DOCTYPE svg PUBLIC "-//W3C//DTD SVG 1.1//EN" "http://www.w3.org/Graphics/SVG/1.1/DTD/svg11.dtd">
<svg version="1.1" id="Layer_1" xmlns="http://www.w3.org/2000/svg" xmlns:xlink="http://www.w3.org/1999/xlink" x="0px" y="0px"
	 width="90px" height="133px" viewBox="0 0 90 133" enable-background="new 0 0 90 133" xml:space="preserve">
<g>
	<path fill="#85868B" d="M77.559,21.6c0.451,0.008,0.859,0.195,1.156,0.491c0.303,0.306,0.49,0.724,0.49,1.188v86.448
		c0,0.457-0.188,0.877-0.49,1.179v0.005c-0.301,0.305-0.721,0.49-1.184,0.49H12.474c-0.462,0-0.883-0.187-1.187-0.491v-0.004
		c-0.303-0.302-0.492-0.722-0.492-1.179V23.277c0-0.465,0.189-0.882,0.492-1.188c0.298-0.294,0.706-0.483,1.158-0.49H77.559
		L77.559,21.6z M77.336,23.469l-64.67,0.001v86.063h64.67V23.469z"/>
	<polygon fill="#85868B" points="69.027,93.203 72.045,104.469 72.68,106.837 70.633,105.489 67.799,103.626 66.285,106.652 
		65.184,108.848 64.549,106.477 61.939,96.736 63.746,96.255 65.717,103.62 66.602,101.857 67.07,100.918 67.945,101.495 
		69.605,102.586 67.223,93.685 	"/>
	<path fill="#85868B" d="M55.461,95.893l-1.793,6.693l1.662-1.091l0.875-0.577l0.467,0.939l0.888,1.763l1.622-6.063l-1.026-0.929
		l-1.819-0.06l-0.621-0.019l-0.223-0.581L55.461,95.893L55.461,95.893L55.461,95.893z M51.23,104.469l3.025-11.293l0.297-1.11
		l1.025,0.518l0.444,0.226l0.328,0.162l0.125,0.335l0.539,1.421l1.538,0.05l0.34,0.013l0.254,0.228l1.199,1.086l1.314-0.574
		l-0.5,1.873l-2.434,9.077l-0.639,2.371l-1.1-2.193l-1.514-3.027l-2.834,1.863l-2.049,1.348L51.23,104.469z"/>
	<path fill="#85868B" d="M63.732,78.521l1.387,1.264l1.82,0.057l0.621,0.019l0.225,0.58l0.629,1.66l1.578,0.794l0.559,0.281
		l-0.047,0.621l-0.131,1.774l1.098,1.437l0.371,0.484l-0.297,0.534l-0.916,1.646l0.344,1.854l0.109,0.603l-0.506,0.341l-1.498,1.012
		l-0.436,1.727l-0.156,0.604l-0.619,0.089l-1.752,0.251l-1.121,1.368l-0.398,0.484l-0.588-0.179l-1.748-0.522l-1.717,0.75
		l-0.551,0.242l-0.449-0.407l-1.389-1.257l-1.82-0.06l-0.621-0.019l-0.223-0.581l-0.631-1.663l-1.574-0.793l-0.561-0.279
		l0.045-0.624l0.137-1.771l-1.1-1.437l-0.373-0.485l0.295-0.535l0.916-1.646l-0.344-1.854l-0.111-0.601l0.506-0.343l1.498-1.011
		l0.439-1.726l0.154-0.604l0.62-0.091l1.748-0.248l1.125-1.371l0.397-0.481l0.59,0.179l1.744,0.522l1.717-0.75l0.551-0.241
		L63.732,78.521L63.732,78.521L63.732,78.521z M64.125,81.393l-1.199-1.085l-1.48,0.648l-0.641,0.041l-1.479-0.444l-0.961,1.171
		l-0.588,0.333l-1.486,0.215l-0.371,1.464l-0.385,0.545l-1.289,0.866l0.293,1.581l-0.102,0.623l-0.779,1.402l0.945,1.232
		l0.189,0.638l-0.115,1.508l1.346,0.677l0.453,0.497l0.539,1.421l1.539,0.05l0.594,0.239l1.199,1.086l1.484-0.647l0.637-0.041
		l1.477,0.444l0.965-1.17l0.588-0.335l1.482-0.212l0.373-1.468l0.385-0.541l1.291-0.867l-0.295-1.584l0.102-0.622l0.781-1.402
		l-0.945-1.232l-0.191-0.637l0.113-1.508l-1.344-0.677l-0.453-0.499l-0.541-1.419l-1.533-0.05L64.125,81.393z"/>
	<path fill="#85868B" d="M62.445,83.246c1.369,0.225,2.518,0.98,3.268,2.023c0.754,1.045,1.104,2.375,0.883,3.742
		c-0.225,1.368-0.982,2.519-2.025,3.271c-1.045,0.749-2.377,1.102-3.74,0.879c-1.365-0.225-2.517-0.981-3.269-2.022
		c-0.752-1.045-1.104-2.376-0.881-3.743c0.223-1.369,0.979-2.518,2.022-3.269C59.746,83.378,61.078,83.021,62.445,83.246
		L62.445,83.246L62.445,83.246z M64.201,86.357c-0.469-0.652-1.191-1.128-2.055-1.271c-0.861-0.14-1.697,0.081-2.352,0.553
		c-0.66,0.471-1.131,1.193-1.273,2.056c-0.143,0.861,0.078,1.697,0.551,2.354c0.471,0.654,1.193,1.131,2.059,1.273
		c0.857,0.139,1.693-0.083,2.35-0.555s1.137-1.192,1.273-2.055C64.893,87.851,64.674,87.016,64.201,86.357z"/>
	<rect x="34.069" y="32.23" fill="#85868B" width="21.865" height="1.872"/>
	<rect x="17.943" y="41.864" fill="#85868B" width="54.117" height="1.869"/>
	<rect x="17.943" y="51.37" fill="#85868B" width="54.117" height="1.871"/>
	<rect x="17.943" y="60.876" fill="#85868B" width="54.117" height="1.871"/>
	<rect x="17.943" y="70.383" fill="#85868B" width="54.117" height="1.868"/>
	<rect x="17.943" y="79.887" fill="#85868B" width="27.057" height="1.872"/>
	<rect x="17.943" y="89.395" fill="#85868B" width="27.057" height="1.871"/>
	<rect x="17.943" y="98.9" fill="#85868B" width="27.057" height="1.871"/>
</g>
</svg>
