<?xml version="1.0" encoding="utf-8"?>
<!-- Generator: Adobe Illustrator 15.1.0, SVG Export Plug-In . SVG Version: 6.00 Build 0)  -->
<!DOCTYPE svg PUBLIC "-//W3C//DTD SVG 1.1//EN" "http://www.w3.org/Graphics/SVG/1.1/DTD/svg11.dtd">
<svg version="1.1" id="Layer_1" xmlns="http://www.w3.org/2000/svg" xmlns:xlink="http://www.w3.org/1999/xlink" x="0px" y="0px"
	 width="60px" height="60px" viewBox="0 0 60 60" enable-background="new 0 0 60 60" xml:space="preserve">
<g>
	<path fill="#85868B" d="M44.132,31.822l-0.014-0.005l-8.272-3.25c-0.393-0.262-0.801-0.498-1.225-0.705v-1.85
		c1.547-1.177,2.624-2.94,2.898-4.955c1.881-0.008,3.409-1.539,3.409-3.422c0-0.956-0.394-1.82-1.027-2.441v-2.716
		c0-5.462-4.443-9.906-9.905-9.906c-5.463,0-9.906,4.444-9.906,9.906v2.716c-0.634,0.622-1.028,1.486-1.028,2.441
		c0,1.883,1.528,3.414,3.409,3.421c0.274,2.015,1.352,3.778,2.9,4.955v1.857c-0.417,0.205-0.82,0.436-1.206,0.694l-8.283,3.253
		c-0.004,0.001-0.008,0.002-0.012,0.005c-0.173,0.071-4.226,1.79-4.226,6.525v16.245c0,0.108,0.022,0.217,0.063,0.319
		c0.042,0.102,0.105,0.192,0.182,0.27c0.078,0.079,0.168,0.139,0.271,0.183c0.102,0.041,0.209,0.063,0.319,0.063h23.589
		c0.11,0,0.219-0.021,0.319-0.063c0.102-0.044,0.192-0.104,0.271-0.183c0.076-0.077,0.139-0.168,0.181-0.27
		c0.042-0.103,0.063-0.211,0.063-0.319c0-0.11-0.021-0.219-0.063-0.32c-0.042-0.101-0.104-0.193-0.181-0.27
		c-0.079-0.078-0.17-0.14-0.271-0.182c-0.101-0.042-0.209-0.063-0.319-0.063H25.943V45.69c0-0.108-0.022-0.218-0.064-0.319
		c-0.041-0.102-0.103-0.192-0.181-0.271c-0.077-0.078-0.17-0.138-0.27-0.182c-0.102-0.041-0.211-0.063-0.319-0.063
		c-0.11,0-0.219,0.021-0.319,0.063c-0.102,0.044-0.194,0.104-0.271,0.182c-0.078,0.078-0.139,0.169-0.181,0.271
		s-0.064,0.211-0.064,0.319v8.068h-4.648v-8.439c0-0.109-0.022-0.219-0.064-0.319c-0.041-0.1-0.103-0.192-0.181-0.271
		c-0.077-0.076-0.169-0.139-0.27-0.179c-0.102-0.044-0.21-0.065-0.319-0.065c-0.11,0-0.219,0.021-0.319,0.065
		c-0.102,0.04-0.194,0.103-0.271,0.179C18.123,44.808,18.062,44.9,18.02,45c-0.042,0.101-0.064,0.21-0.064,0.319v8.439h-4.643
		V38.347c0-3.565,3.014-4.905,3.188-4.979l4.738-1.861c-1.075,1.623-1.704,3.544-1.748,5.563v0.02v1.59
		c-0.826,0.332-1.41,1.139-1.41,2.081c0,1.239,1.006,2.244,2.244,2.244c1.237,0,2.244-1.005,2.244-2.244
		c0-0.942-0.584-1.749-1.41-2.081v-1.581c0.068-2.847,1.507-5.457,3.791-7.049l0.434-0.17c0.031,0.188,0.126,0.362,0.27,0.49
		l3.077,2.708l-4.17,3.64c-0.089,0.077-0.162,0.175-0.212,0.283c-0.049,0.109-0.075,0.226-0.075,0.346v5.897
		c0,0.46,0.374,0.834,0.835,0.834c0.46,0,0.834-0.374,0.834-0.834v-5.519l4.546-3.968c0.022-0.017,0.043-0.033,0.064-0.051
		l3.79-3.339c0.033-0.027,0.063-0.061,0.091-0.095l0.014-0.015c0.024-0.033,0.049-0.068,0.07-0.105
		c0.003-0.006,0.006-0.012,0.008-0.017c0.041-0.077,0.071-0.161,0.086-0.247c0.001-0.004,0.003-0.008,0.003-0.012l0.438,0.172
		c1.342,0.935,2.398,2.222,3.054,3.72h-0.239c-1.422,0-2.581,1.157-2.581,2.58v4.074c0,1.424,1.159,2.581,2.581,2.581
		c0.111,0,0.219-0.021,0.32-0.063c0.101-0.044,0.193-0.104,0.271-0.182c0.077-0.078,0.14-0.169,0.181-0.271
		c0.042-0.103,0.063-0.211,0.063-0.319c0-0.11-0.021-0.219-0.063-0.32c-0.041-0.101-0.104-0.193-0.181-0.271
		s-0.17-0.139-0.271-0.181c-0.102-0.042-0.209-0.063-0.32-0.063c-0.503,0-0.91-0.41-0.91-0.913v-4.074c0-0.502,0.407-0.91,0.91-0.91
		h2.911c0.502,0,0.911,0.408,0.911,0.91v4.074c0,0.503-0.409,0.913-0.911,0.913c-0.11,0-0.219,0.021-0.319,0.063
		c-0.103,0.042-0.193,0.104-0.271,0.181c-0.076,0.077-0.139,0.17-0.18,0.271c-0.044,0.102-0.065,0.21-0.065,0.32
		c0,0.108,0.021,0.217,0.065,0.319c0.041,0.102,0.104,0.192,0.18,0.271c0.078,0.077,0.169,0.138,0.271,0.182
		c0.101,0.041,0.209,0.063,0.319,0.063c1.422,0,2.58-1.157,2.58-2.581v-4.074c0-1.423-1.158-2.58-2.58-2.58h-0.877
		c-0.283-0.794-0.662-1.554-1.128-2.259l4.727,1.857c0.128,0.054,3.188,1.409,3.188,4.979v15.41h-4.643v-8.438
		c0-0.108-0.021-0.218-0.064-0.318c-0.041-0.102-0.104-0.193-0.18-0.271c-0.079-0.077-0.171-0.139-0.271-0.181
		s-0.209-0.063-0.319-0.063s-0.219,0.021-0.319,0.063s-0.192,0.104-0.271,0.181c-0.076,0.078-0.139,0.17-0.18,0.271
		c-0.043,0.101-0.064,0.21-0.064,0.318v8.438h-1.823c-0.108,0-0.218,0.022-0.318,0.064c-0.103,0.041-0.193,0.104-0.271,0.181
		c-0.077,0.077-0.139,0.17-0.181,0.271c-0.042,0.102-0.063,0.209-0.063,0.32c0,0.108,0.021,0.217,0.063,0.317
		c0.042,0.103,0.104,0.194,0.181,0.271c0.078,0.078,0.169,0.139,0.271,0.181c0.101,0.043,0.21,0.064,0.318,0.064h8.97
		c0.11,0,0.219-0.021,0.32-0.064c0.101-0.042,0.193-0.103,0.271-0.181c0.078-0.077,0.139-0.169,0.181-0.271
		c0.042-0.101,0.063-0.209,0.063-0.317V38.347C48.357,33.612,44.303,31.894,44.132,31.822z M20.325,41.336
		c-0.152,0-0.299-0.062-0.406-0.169c-0.109-0.108-0.168-0.255-0.168-0.407s0.06-0.299,0.168-0.406
		c0.107-0.107,0.254-0.168,0.406-0.168c0.152,0,0.299,0.061,0.406,0.168c0.107,0.107,0.168,0.254,0.168,0.406
		s-0.061,0.299-0.168,0.407C20.624,41.274,20.477,41.336,20.325,41.336z M38.258,16.055c0.088,0.042,0.169,0.089,0.248,0.144
		c0.011,0.007,0.021,0.014,0.031,0.021c0.438,0.319,0.723,0.835,0.723,1.417c0,0.939-0.74,1.708-1.67,1.751v-3.5
		c0.009,0,0.017,0,0.024,0c0.041,0.003,0.079,0.006,0.12,0.012c0.012,0.001,0.024,0.002,0.038,0.005
		c0.108,0.016,0.214,0.042,0.314,0.078l0.01,0.004c0.046,0.016,0.091,0.035,0.137,0.055C38.242,16.047,38.25,16.051,38.258,16.055z
		 M22.4,19.388c-0.928-0.043-1.669-0.812-1.669-1.75c0-0.581,0.286-1.098,0.723-1.417c0.011-0.007,0.021-0.014,0.031-0.021
		c0.043-0.03,0.087-0.059,0.133-0.085c0.038-0.021,0.076-0.042,0.115-0.06c0.008-0.004,0.017-0.008,0.024-0.012
		c0.045-0.021,0.09-0.04,0.136-0.056c0.004-0.001,0.007-0.002,0.01-0.004c0.102-0.035,0.208-0.062,0.315-0.078
		c0.014-0.002,0.026-0.003,0.04-0.005c0.04-0.005,0.079-0.009,0.118-0.012c0.008,0,0.016,0,0.024,0V19.388z M22.682,13.317
		c-0.088,0.078-0.159,0.174-0.208,0.282c-0.049,0.107-0.073,0.224-0.073,0.342v0.275c-0.018,0-0.035,0.002-0.053,0.002
		c-0.06,0.002-0.118,0.006-0.178,0.012c-0.018,0.001-0.037,0.003-0.054,0.005c-0.043,0.005-0.087,0.01-0.13,0.016
		c-0.01,0.001-0.021,0.003-0.03,0.004c-0.067,0.01-0.132,0.021-0.197,0.036v-1.813c0-4.542,3.696-8.237,8.238-8.237
		c4.541,0,8.235,3.695,8.235,8.237v1.813c-0.065-0.014-0.131-0.026-0.196-0.036c-0.009-0.001-0.019-0.003-0.026-0.004
		c-0.045-0.006-0.09-0.011-0.134-0.017c-0.019-0.001-0.035-0.003-0.054-0.004c-0.061-0.005-0.118-0.01-0.179-0.012
		c-0.018,0-0.035-0.002-0.053-0.002v-0.275c0-0.211-0.078-0.414-0.223-0.568l-2.656-2.856c-0.138-0.146-0.322-0.239-0.522-0.261
		c-0.198-0.021-0.398,0.03-0.563,0.144c-0.01,0.006-0.019,0.012-0.028,0.019c-0.038,0.028-3.771,2.789-8.689,2.789
		c-0.527,0-1.055-0.032-1.573-0.095c-0.117-0.014-0.236-0.003-0.349,0.032C22.873,13.18,22.77,13.239,22.682,13.317z M32.95,29.365
		l-2.952,2.602l-2.954-2.602v-0.963c0-0.031-0.001-0.061-0.005-0.09v-1.336c0.087,0.036,0.174,0.068,0.262,0.101
		c0.009,0.003,0.018,0.007,0.027,0.011c0.098,0.035,0.196,0.068,0.295,0.1c0.021,0.006,0.04,0.014,0.06,0.019
		c0.09,0.029,0.181,0.053,0.272,0.078c0.028,0.008,0.058,0.017,0.087,0.024c0.084,0.021,0.168,0.04,0.252,0.059
		c0.038,0.008,0.075,0.018,0.111,0.025c0.08,0.016,0.159,0.029,0.239,0.043c0.043,0.007,0.087,0.016,0.13,0.022
		c0.076,0.011,0.155,0.02,0.232,0.029c0.046,0.006,0.092,0.013,0.14,0.018c0.082,0.008,0.165,0.014,0.249,0.02
		c0.042,0.002,0.083,0.006,0.125,0.009c0.126,0.006,0.252,0.009,0.379,0.009h0.193c0.126,0,0.251-0.003,0.377-0.009
		c0.042-0.002,0.084-0.006,0.127-0.009c0.082-0.006,0.164-0.011,0.248-0.02c0.046-0.004,0.093-0.011,0.139-0.018
		c0.079-0.009,0.155-0.018,0.233-0.029c0.044-0.007,0.087-0.016,0.131-0.022c0.078-0.014,0.157-0.027,0.236-0.043
		c0.038-0.007,0.076-0.017,0.114-0.025c0.082-0.019,0.167-0.038,0.249-0.059c0.03-0.007,0.061-0.016,0.09-0.024
		c0.092-0.024,0.181-0.05,0.271-0.077c0.021-0.006,0.041-0.014,0.062-0.021c0.098-0.031,0.195-0.064,0.293-0.099
		c0.01-0.003,0.02-0.008,0.03-0.012c0.087-0.032,0.174-0.065,0.258-0.1V29.365z M32.098,25.516l-0.007,0.002
		c-0.179,0.065-0.36,0.122-0.544,0.169h-0.001c-0.084,0.021-0.169,0.041-0.254,0.059l-0.056,0.011
		c-0.076,0.016-0.153,0.029-0.231,0.042c-0.012,0.002-0.024,0.004-0.035,0.006c-0.087,0.013-0.177,0.024-0.265,0.034
		c-0.021,0.002-0.041,0.003-0.062,0.005c-0.069,0.007-0.139,0.012-0.209,0.016c-0.024,0.001-0.05,0.003-0.075,0.004
		c-0.089,0.004-0.178,0.007-0.269,0.007h-0.193c-0.089,0-0.179-0.003-0.268-0.007c-0.026-0.001-0.05-0.003-0.075-0.004
		c-0.07-0.004-0.14-0.009-0.21-0.016c-0.021-0.002-0.041-0.003-0.061-0.005c-0.088-0.01-0.177-0.021-0.264-0.034
		c-0.012-0.001-0.023-0.004-0.035-0.005c-0.077-0.012-0.155-0.026-0.232-0.042l-0.054-0.011c-0.085-0.018-0.171-0.038-0.255-0.059
		c-0.185-0.048-0.367-0.104-0.544-0.17l-0.005-0.001c-2.229-0.819-3.825-2.964-3.825-5.475v-5.188
		c0.28,0.016,0.56,0.023,0.839,0.023c4.307,0,7.713-1.841,9.067-2.699l1.947,2.092v5.772C35.922,22.552,34.327,24.697,32.098,25.516
		z"/>
</g>
</svg>
