<?xml version="1.0" encoding="utf-8"?>
<!-- Generator: Adobe Illustrator 15.1.0, SVG Export Plug-In . SVG Version: 6.00 Build 0)  -->
<!DOCTYPE svg PUBLIC "-//W3C//DTD SVG 1.1//EN" "http://www.w3.org/Graphics/SVG/1.1/DTD/svg11.dtd">
<svg version="1.1" id="Layer_1" xmlns="http://www.w3.org/2000/svg" xmlns:xlink="http://www.w3.org/1999/xlink" x="0px" y="0px"
	 width="26px" height="26px" viewBox="0 0 26 26" enable-background="new 0 0 26 26" xml:space="preserve">
<g>
	<path fill="#18191C" d="M22.087,12.544c0,0.94,0.762,1.701,1.702,1.701c0.939,0,1.7-0.761,1.7-1.701
		C25.487,5.651,19.896,0.065,13.004,0.068c-2.953,0.001-5.808,1.049-8.061,2.958V1.701C4.943,0.762,4.181,0,3.242,0
		s-1.7,0.762-1.7,1.701v5.363c0,0.934,0.757,1.692,1.691,1.692l5.159,0.48c0.932,0.084,1.756-0.604,1.841-1.534
		c0.083-0.932-0.604-1.756-1.536-1.84L7.005,5.708c3.782-3.306,9.528-2.921,12.834,0.862C21.286,8.224,22.085,10.346,22.087,12.544z
		 M17.271,16.69c-0.936-0.084-1.762,0.606-1.846,1.541c-0.084,0.934,0.606,1.76,1.541,1.844l2.131,0.192
		c-3.717,3.37-9.463,3.087-12.833-0.631c-1.518-1.677-2.357-3.857-2.353-6.118c0-0.94-0.761-1.702-1.701-1.702
		c-0.939,0-1.701,0.761-1.701,1.702C0.51,20.411,6.097,25.999,12.99,26c2.827,0,5.571-0.959,7.781-2.722v0.884
		c0,0.939,0.762,1.701,1.702,1.701c0.938,0,1.699-0.762,1.699-1.701v-5.297l0,0c0.004-0.879-0.666-1.613-1.541-1.691l-5.354-0.487
		L17.271,16.69z"/>
</g>
</svg>
