<?xml version="1.0" encoding="utf-8"?>
<!-- Generator: Adobe Illustrator 15.1.0, SVG Export Plug-In . SVG Version: 6.00 Build 0)  -->
<!DOCTYPE svg PUBLIC "-//W3C//DTD SVG 1.1//EN" "http://www.w3.org/Graphics/SVG/1.1/DTD/svg11.dtd">
<svg version="1.1" xmlns="http://www.w3.org/2000/svg" xmlns:xlink="http://www.w3.org/1999/xlink" x="0px" y="0px" width="29px"
	 height="27px" viewBox="0 0 29 27" enable-background="new 0 0 29 27" xml:space="preserve">
<g id="Layer_1">
	<path fill="#18191C" d="M25.307,4.144h-3.92c-0.535-0.776-1.645-2.381-2.293-3.284C18.645,0.229,17.82,0,17.379,0h-5.757
		c-0.441,0-1.263,0.229-1.715,0.857c-0.649,0.904-1.759,2.51-2.294,3.286H3.694c-0.568,0-1.029,0.461-1.029,1.029
		s0.461,1.029,1.029,1.029h0.643v16.99c0,2.1,1.708,3.808,3.808,3.808h12.71c2.1,0,3.809-1.708,3.809-3.808V6.202h0.643
		c0.568,0,1.029-0.461,1.029-1.029S25.875,4.144,25.307,4.144z M11.533,2.109c0.026-0.02,0.101-0.048,0.088-0.051l5.705-0.004
		c0.039,0.006,0.115,0.035,0.096,0.004c0.395,0.551,0.961,1.361,1.463,2.085h-8.772C10.608,3.428,11.16,2.635,11.533,2.109z
		 M22.605,23.192c0,0.965-0.785,1.75-1.75,1.75H8.145c-0.965,0-1.75-0.785-1.75-1.75V6.202h16.21V23.192z"/>
	<path fill="#18191C" d="M10.126,21.911c0.398,0,0.721-0.323,0.721-0.721V9.955c0-0.398-0.323-0.721-0.721-0.721
		S9.405,9.557,9.405,9.955V21.19C9.405,21.588,9.728,21.911,10.126,21.911z"/>
	<path fill="#18191C" d="M14.5,21.911c0.398,0,0.721-0.323,0.721-0.721V9.955c0-0.398-0.323-0.721-0.721-0.721
		s-0.721,0.322-0.721,0.721V21.19C13.779,21.588,14.102,21.911,14.5,21.911z"/>
	<path fill="#18191C" d="M18.875,21.911c0.396,0,0.719-0.323,0.719-0.721V9.955c0-0.398-0.322-0.721-0.719-0.721
		c-0.398,0-0.721,0.322-0.721,0.721V21.19C18.154,21.588,18.477,21.911,18.875,21.911z"/>
</g>
<g id="Layer_2">
</g>
<g id="Layer_3">
</g>
</svg>
