<?xml version="1.0" encoding="utf-8"?>
<!-- Generator: Adobe Illustrator 15.1.0, SVG Export Plug-In . SVG Version: 6.00 Build 0)  -->
<!DOCTYPE svg PUBLIC "-//W3C//DTD SVG 1.1//EN" "http://www.w3.org/Graphics/SVG/1.1/DTD/svg11.dtd">
<svg version="1.1" id="Layer_1" xmlns="http://www.w3.org/2000/svg" xmlns:xlink="http://www.w3.org/1999/xlink" x="0px" y="0px"
	 width="26px" height="26px" viewBox="0 0 26 26" enable-background="new 0 0 26 26" xml:space="preserve">
<g>
	<path d="M6.074,15.582c0.379,0,0.687-0.306,0.687-0.686c0-0.379-0.308-0.686-0.687-0.686s-0.687,0.307-0.687,0.686
		C5.387,15.276,5.695,15.582,6.074,15.582z"/>
	<path d="M13,18.328c0.378,0,0.687-0.306,0.687-0.686c0-0.379-0.308-0.686-0.687-0.686c-0.379,0-0.687,0.307-0.687,0.686
		C12.313,18.022,12.621,18.328,13,18.328z"/>
	<path d="M6.074,18.178c0.379,0,0.687-0.307,0.687-0.687c0-0.379-0.308-0.687-0.687-0.687s-0.687,0.308-0.687,0.687
		C5.387,17.871,5.695,18.178,6.074,18.178z"/>
	<path d="M24.923,12.261V8.215c0.021-0.669-0.091-1.336-0.332-1.961c-0.242-0.625-0.606-1.195-1.072-1.676
		c-0.466-0.481-1.023-0.864-1.641-1.125c-0.616-0.261-1.279-0.396-1.949-0.396s-1.333,0.135-1.949,0.396
		c-0.617,0.262-1.176,0.644-1.641,1.125c-0.466,0.481-0.831,1.051-1.072,1.676c-0.24,0.625-0.354,1.292-0.333,1.961v0.629
		c-0.426-0.347-0.938-0.575-1.482-0.661c-0.544-0.086-1.101-0.026-1.613,0.173c-0.514,0.199-0.965,0.531-1.309,0.961
		c-0.344,0.43-0.568,0.943-0.649,1.488c-0.421-0.037-0.759,0-2.08,0v-0.401c0.873-0.399,1.583-1.085,2.013-1.944
		c0.43-0.859,0.552-1.838,0.348-2.777c-0.205-0.938-0.724-1.778-1.471-2.38C7.941,2.701,7.01,2.372,6.05,2.372
		c-0.96,0-1.891,0.329-2.639,0.931C2.664,3.905,2.144,4.745,1.94,5.683C1.735,6.622,1.858,7.601,2.288,8.46s1.14,1.545,2.012,1.944
		v0.375H2.48c-0.658,0.001-1.289,0.264-1.754,0.729C0.261,11.975,0,12.606,0,13.265v7.883c0.001,0.656,0.263,1.287,0.728,1.753
		c0.464,0.464,1.095,0.727,1.752,0.728H23.52c0.657-0.001,1.287-0.264,1.752-0.728c0.465-0.466,0.727-1.097,0.729-1.753v-6.843
		c0-0.402-0.098-0.799-0.286-1.155C25.527,12.794,25.256,12.488,24.923,12.261z M24.96,19.088h-1.456v-1.627
		c0-0.138-0.055-0.271-0.152-0.368s-0.23-0.152-0.368-0.152c-0.139,0-0.271,0.055-0.367,0.152c-0.099,0.098-0.152,0.23-0.152,0.368
		v5.127h-5.2c0.144-0.271,0.22-0.572,0.224-0.88v-5.636c-0.001-0.509-0.204-0.996-0.563-1.355s-0.847-0.562-1.354-0.563h-1.171
		v-0.025c0.484-0.251,0.897-0.619,1.201-1.072c0.217-0.126,0.462-0.192,0.713-0.192h1.929c0.084,0.269,0.232,0.513,0.432,0.712
		c0.199,0.199,0.444,0.348,0.713,0.432v2.543c0,0.139,0.055,0.27,0.151,0.367c0.099,0.098,0.231,0.152,0.369,0.152
		c0.137,0,0.269-0.055,0.366-0.152c0.099-0.098,0.153-0.229,0.153-0.367v-2.543c0.269-0.084,0.514-0.232,0.712-0.432
		c0.199-0.199,0.348-0.443,0.432-0.712h1.93c0.19-0.003,0.379,0.032,0.558,0.104c0.177,0.071,0.338,0.176,0.474,0.31
		c0.137,0.135,0.244,0.294,0.317,0.47c0.074,0.176,0.112,0.365,0.112,0.557V19.088z M10.431,22.588
		c-0.232,0-0.456-0.092-0.621-0.258c-0.165-0.165-0.257-0.388-0.257-0.622v-5.636c0-0.232,0.092-0.457,0.257-0.621
		c0.165-0.164,0.389-0.258,0.621-0.258h1.274c0.102,0.263,0.28,0.488,0.512,0.647s0.507,0.244,0.788,0.244s0.556-0.085,0.788-0.244
		s0.41-0.385,0.512-0.647h1.274c0.233,0,0.456,0.094,0.622,0.258c0.164,0.164,0.257,0.389,0.257,0.621v5.636
		c0,0.234-0.093,0.457-0.257,0.622c-0.166,0.166-0.389,0.258-0.622,0.258H10.431z M15.018,10.701
		c0.063,0.195,0.096,0.398,0.098,0.604c-0.006,0.558-0.231,1.093-0.627,1.487c-0.396,0.395-0.93,0.618-1.488,0.624
		c-0.471-0.001-0.928-0.16-1.299-0.452c-0.37-0.291-0.632-0.698-0.745-1.155C12.384,11.803,13.785,11.421,15.018,10.701z
		 M12.641,14.435c0.239,0.027,0.479,0.027,0.718,0v0.239c0,0.047-0.008,0.094-0.026,0.139c-0.019,0.043-0.044,0.083-0.078,0.117
		c-0.034,0.033-0.073,0.059-0.117,0.076c-0.043,0.018-0.091,0.027-0.138,0.026c-0.095,0-0.187-0.038-0.254-0.104
		c-0.067-0.068-0.105-0.159-0.105-0.254V14.435z M19.921,10.794c-0.514,0-1.012-0.171-1.418-0.485
		c-0.406-0.314-0.695-0.755-0.823-1.252c0.795,0.06,1.593-0.063,2.332-0.361c0.739-0.297,1.4-0.761,1.932-1.355
		c0.198,0.353,0.3,0.752,0.296,1.156c-0.004,0.405-0.113,0.801-0.317,1.15c-0.205,0.349-0.497,0.638-0.849,0.84
		C20.724,10.688,20.325,10.794,19.921,10.794z M19.921,11.834c0.239,0,0.479-0.025,0.712-0.078v0.582
		c-0.015,0.178-0.097,0.343-0.228,0.464s-0.304,0.188-0.481,0.188c-0.179,0-0.351-0.066-0.481-0.188
		c-0.132-0.121-0.214-0.286-0.229-0.464v-0.582c0.233,0.053,0.473,0.079,0.712,0.078H19.921z M19.921,4.258
		c1.05,0,2.056,0.417,2.798,1.159c0.743,0.742,1.159,1.749,1.159,2.798v3.64c-0.12-0.022-0.241-0.035-0.364-0.037h-1.835V11.33
		c0.434-0.264,0.801-0.624,1.076-1.051c0.273-0.427,0.447-0.911,0.508-1.416c0.06-0.504,0.005-1.016-0.162-1.495
		c-0.166-0.479-0.438-0.916-0.798-1.274c-0.057-0.056-0.124-0.097-0.199-0.123c-0.074-0.025-0.154-0.033-0.233-0.023
		c-0.077,0.01-0.152,0.038-0.218,0.081c-0.066,0.043-0.121,0.101-0.161,0.168c-1.367,2.272-4.16,1.783-4.306,1.762
		c-0.075-0.014-0.151-0.011-0.226,0.008c-0.073,0.019-0.142,0.054-0.2,0.102c-0.061,0.048-0.109,0.109-0.142,0.178
		c-0.032,0.07-0.051,0.145-0.052,0.222c0.002,0.575,0.15,1.139,0.434,1.64c0.281,0.5,0.688,0.92,1.18,1.22v0.488h-2.076
		c0.033-0.17,0.05-0.345,0.053-0.52c-0.002-0.354-0.063-0.706-0.183-1.041V8.215c0-1.048,0.416-2.054,1.157-2.796
		c0.741-0.742,1.747-1.16,2.795-1.161H19.921z M13,9.188c0.276,0,0.551,0.054,0.807,0.16c0.255,0.106,0.486,0.262,0.68,0.459
		c-1.069,0.627-2.285,0.959-3.525,0.961c0.118-0.451,0.381-0.851,0.751-1.137C12.081,9.346,12.534,9.189,13,9.188z M8.71,4.835
		C8.996,5.257,9.175,5.743,9.23,6.25C8.537,6.376,7.82,6.278,7.187,5.969C7.715,5.619,8.224,5.241,8.71,4.835z M6.073,3.421
		C6.768,3.419,7.444,3.65,7.993,4.076c-2.928,2.387-4.519,2.319-5.07,2.179c0.083-0.778,0.451-1.498,1.033-2.021
		C4.537,3.711,5.291,3.421,6.073,3.421z M2.995,7.331c0.145,0.02,0.291,0.03,0.437,0.031c0.929-0.037,1.836-0.294,2.647-0.749
		c0.809,0.45,1.712,0.705,2.637,0.744c0.144-0.001,0.289-0.011,0.431-0.031C9.045,7.754,8.854,8.158,8.588,8.508
		C8.321,8.859,7.984,9.15,7.598,9.362c-0.386,0.213-0.812,0.342-1.25,0.38C5.908,9.78,5.466,9.726,5.049,9.583
		C4.546,9.409,4.095,9.111,3.736,8.718C3.377,8.324,3.123,7.848,2.995,7.331z M6.073,10.794c0.23-0.003,0.46-0.025,0.687-0.068
		v0.572c-0.016,0.178-0.097,0.343-0.228,0.464C6.4,11.883,6.229,11.95,6.05,11.95c-0.178,0-0.35-0.067-0.481-0.188
		c-0.132-0.121-0.213-0.286-0.228-0.464v-0.572C5.582,10.771,5.828,10.794,6.073,10.794z M2.48,11.834H4.41
		c0.108,0.356,0.329,0.667,0.627,0.889c0.299,0.222,0.662,0.341,1.034,0.341c0.373,0,0.734-0.12,1.034-0.341s0.52-0.533,0.628-0.889
		c0.72-0.039,1.442-0.039,2.163,0c0.086,0.487,0.286,0.948,0.582,1.344c0.296,0.396,0.681,0.718,1.124,0.938v0.025h-1.17
		c-0.508,0.002-0.996,0.204-1.355,0.564c-0.359,0.359-0.562,0.846-0.563,1.354v5.646c0.003,0.308,0.081,0.608,0.224,0.88h-5.2
		v-5.127c0-0.138-0.055-0.271-0.152-0.368c-0.098-0.098-0.23-0.152-0.368-0.152c-0.138,0-0.27,0.055-0.368,0.152
		s-0.152,0.23-0.152,0.368v1.627H1.04v-5.823c0-0.382,0.152-0.749,0.422-1.019s0.636-0.422,1.019-0.422V11.834z M1.04,21.147v-1.039
		h1.456v2.458c-0.381,0.005-0.749-0.143-1.021-0.408C1.202,21.892,1.046,21.528,1.04,21.147z M23.52,22.588v-2.46h1.44v1.04
		c-0.006,0.379-0.16,0.739-0.43,1.006C24.261,22.438,23.897,22.588,23.52,22.588z"/>
</g>
</svg>
