<?xml version="1.0" encoding="utf-8"?>
<!-- Generator: Adobe Illustrator 15.1.0, SVG Export Plug-In . SVG Version: 6.00 Build 0)  -->
<!DOCTYPE svg PUBLIC "-//W3C//DTD SVG 1.1//EN" "http://www.w3.org/Graphics/SVG/1.1/DTD/svg11.dtd">
<svg version="1.1" id="Layer_1" xmlns="http://www.w3.org/2000/svg" xmlns:xlink="http://www.w3.org/1999/xlink" x="0px" y="0px"
	 width="26px" height="26px" viewBox="0 0 26 26" enable-background="new 0 0 26 26" xml:space="preserve">
<path d="M6.074,13.21c0.379,0,0.687-0.307,0.687-0.686s-0.308-0.687-0.687-0.687c-0.379,0-0.687,0.308-0.687,0.687
	S5.695,13.21,6.074,13.21z"/>
<path d="M13,15.956c0.378,0,0.688-0.307,0.688-0.686S13.379,14.584,13,14.584s-0.687,0.308-0.687,0.687S12.621,15.956,13,15.956z"/>
<path d="M6.074,15.806c0.379,0,0.687-0.307,0.687-0.687s-0.308-0.687-0.687-0.687c-0.379,0-0.687,0.307-0.687,0.687
	S5.695,15.806,6.074,15.806z"/>
<path d="M25.715,10.778c-0.188-0.356-0.459-0.662-0.792-0.889V5.843c0.021-0.669-0.091-1.336-0.332-1.961s-0.606-1.195-1.071-1.676
	c-0.467-0.481-1.023-0.864-1.642-1.125C21.262,0.82,20.6,0.685,19.93,0.685c-0.671,0-1.334,0.135-1.949,0.396
	c-0.617,0.262-1.176,0.644-1.642,1.125s-0.831,1.051-1.071,1.676s-0.354,1.292-0.334,1.961v0.629
	c-0.426-0.347-0.938-0.575-1.481-0.661s-1.101-0.026-1.613,0.173c-0.514,0.199-0.965,0.531-1.309,0.961
	c-0.344,0.43-0.568,0.943-0.649,1.488c-0.421-0.037-0.759,0-2.08,0V8.032c0.873-0.399,1.583-1.085,2.013-1.944
	s0.552-1.838,0.348-2.777c-0.205-0.938-0.724-1.778-1.471-2.38C7.941,0.329,7.01,0,6.05,0S4.159,0.329,3.411,0.931
	C2.664,1.533,2.144,2.373,1.94,3.311C1.735,4.25,1.858,5.229,2.288,6.088c0.43,0.859,1.14,1.545,2.012,1.944v0.375H2.48
	C1.822,8.408,1.191,8.671,0.726,9.136C0.261,9.603,0,10.234,0,10.893v7.883c0.001,0.656,0.263,1.287,0.728,1.752
	c0.464,0.465,1.095,0.728,1.752,0.729l9.169-0.005c0.14,0,0.271-0.055,0.367-0.152c0.099-0.098,0.151-0.23,0.151-0.369
	c0-0.137-0.055-0.268-0.151-0.365c-0.099-0.1-0.229-0.152-0.367-0.152l-0.07,0.003h-1.148c-0.232,0-0.456-0.092-0.621-0.258
	c-0.165-0.165-0.257-0.389-0.257-0.622V13.7c0-0.232,0.092-0.457,0.257-0.621s0.389-0.258,0.621-0.258h1.274
	c0.102,0.263,0.28,0.488,0.512,0.646c0.232,0.159,0.507,0.244,0.788,0.244c0.281,0,0.556-0.085,0.788-0.244
	c0.232-0.158,0.41-0.385,0.512-0.646h1.274c0.233,0,0.456,0.094,0.622,0.258c0.164,0.164,0.257,0.389,0.257,0.621v3.636h-0.009
	c0,0.14,0.055,0.271,0.151,0.367c0.099,0.099,0.231,0.151,0.369,0.151c0.137,0,0.269-0.055,0.366-0.151
	c0.099-0.099,0.152-0.229,0.152-0.367V13.7c0-0.51-0.203-0.996-0.563-1.355s-0.847-0.562-1.354-0.563H14.4v-0.025
	c0.484-0.251,0.897-0.619,1.201-1.072c0.217-0.126,0.463-0.192,0.713-0.192h1.93c0.084,0.269,0.232,0.513,0.432,0.712
	c0.199,0.198,0.444,0.348,0.713,0.432v0.543c0,0.14,0.055,0.271,0.151,0.367c0.099,0.099,0.231,0.151,0.369,0.151
	c0.137,0,0.269-0.055,0.366-0.151c0.099-0.099,0.152-0.229,0.152-0.367v-0.543c0.27-0.084,0.514-0.231,0.713-0.432
	c0.198-0.199,0.348-0.443,0.432-0.712h1.93c0.189-0.003,0.379,0.032,0.559,0.104c0.176,0.071,0.338,0.176,0.474,0.31
	c0.137,0.135,0.243,0.294,0.317,0.47c0.073,0.176,0.111,0.365,0.111,0.558v4.781H24.96h-1.456v-1.627
	c0-0.138-0.055-0.271-0.152-0.368c-0.097-0.097-0.229-0.151-0.367-0.151c-0.139,0-0.271,0.055-0.367,0.151
	c-0.1,0.099-0.152,0.23-0.152,0.368v2.667h2.495h1.041v-5.823C26.001,11.53,25.902,11.134,25.715,10.778z M11.713,7.259
	C12.081,6.974,12.534,6.817,13,6.816c0.276,0,0.551,0.054,0.807,0.16s0.486,0.262,0.68,0.459c-1.068,0.627-2.284,0.959-3.524,0.961
	C11.08,7.945,11.343,7.545,11.713,7.259z M8.71,2.463c0.286,0.422,0.465,0.908,0.52,1.415C8.537,4.004,7.82,3.906,7.187,3.597
	C7.715,3.247,8.224,2.869,8.71,2.463z M3.956,1.862c0.581-0.523,1.335-0.813,2.117-0.813c0.695-0.002,1.371,0.229,1.92,0.655
	c-2.928,2.387-4.519,2.319-5.07,2.179C3.006,3.105,3.374,2.385,3.956,1.862z M3.736,6.346c-0.359-0.394-0.613-0.87-0.741-1.387
	c0.145,0.02,0.291,0.03,0.437,0.031c0.929-0.037,1.836-0.294,2.647-0.749c0.809,0.45,1.712,0.705,2.637,0.744
	C8.86,4.984,9.005,4.974,9.147,4.954C9.045,5.382,8.854,5.786,8.588,6.136C8.321,6.487,7.984,6.778,7.598,6.99
	c-0.386,0.213-0.812,0.342-1.25,0.38c-0.44,0.038-0.882-0.016-1.299-0.159C4.546,7.037,4.095,6.739,3.736,6.346z M6.76,8.354v0.572
	C6.744,9.104,6.663,9.269,6.532,9.39C6.4,9.511,6.229,9.578,6.05,9.578c-0.178,0-0.35-0.067-0.481-0.188
	C5.437,9.269,5.356,9.104,5.341,8.926V8.354c0.241,0.045,0.487,0.068,0.732,0.068C6.303,8.419,6.533,8.397,6.76,8.354z
	 M2.496,20.194c-0.381,0.004-0.749-0.144-1.021-0.408c-0.273-0.266-0.429-0.631-0.435-1.012v-1.039h1.456V20.194z M11.602,11.769
	h-1.17c-0.508,0.002-0.996,0.204-1.355,0.564c-0.359,0.359-0.562,0.846-0.563,1.354v5.646c0.003,0.309,0.081,0.607,0.224,0.88h-5.2
	v-5.127c0-0.138-0.055-0.271-0.152-0.368c-0.098-0.098-0.23-0.152-0.368-0.152c-0.138,0-0.27,0.056-0.368,0.152
	c-0.098,0.098-0.152,0.23-0.152,0.368v1.627H1.04V10.89c0-0.382,0.152-0.749,0.422-1.019s0.636-0.422,1.019-0.422v0.013H4.41
	c0.108,0.356,0.329,0.667,0.627,0.889c0.299,0.222,0.662,0.341,1.034,0.341c0.373,0,0.734-0.12,1.034-0.341
	c0.3-0.221,0.52-0.533,0.628-0.889c0.72-0.039,1.442-0.039,2.163,0c0.086,0.487,0.286,0.948,0.582,1.344
	c0.296,0.396,0.681,0.719,1.124,0.938V11.769z M13.359,12.302c0,0.047-0.008,0.094-0.026,0.139
	c-0.019,0.043-0.044,0.084-0.078,0.117c-0.034,0.033-0.073,0.06-0.117,0.076c-0.043,0.018-0.091,0.027-0.138,0.026
	c-0.095,0-0.187-0.038-0.254-0.104c-0.067-0.068-0.105-0.158-0.105-0.254v-0.238c0.239,0.026,0.479,0.026,0.718,0V12.302z
	 M14.488,10.42c-0.396,0.395-0.93,0.618-1.487,0.624c-0.471-0.001-0.928-0.16-1.299-0.452c-0.37-0.291-0.632-0.698-0.745-1.155
	c1.427-0.006,2.828-0.388,4.061-1.108c0.063,0.195,0.096,0.398,0.099,0.604C15.109,9.491,14.885,10.026,14.488,10.42z M20.633,9.966
	c-0.015,0.178-0.097,0.343-0.229,0.464c-0.131,0.121-0.303,0.188-0.48,0.188c-0.179,0-0.352-0.066-0.48-0.188
	c-0.133-0.121-0.215-0.286-0.229-0.464V9.384c0.232,0.053,0.472,0.079,0.71,0.078s0.478-0.025,0.709-0.078V9.966z M21.074,8.115
	c-0.35,0.201-0.749,0.307-1.153,0.307c-0.514,0-1.012-0.171-1.418-0.485c-0.405-0.314-0.694-0.755-0.823-1.252
	c0.795,0.06,1.594-0.063,2.332-0.361c0.739-0.297,1.4-0.761,1.932-1.355c0.199,0.353,0.301,0.752,0.297,1.156
	c-0.004,0.405-0.113,0.801-0.317,1.15C21.718,7.624,21.426,7.913,21.074,8.115z M23.878,9.483c-0.12-0.022-0.241-0.035-0.364-0.037
	H21.68V8.958c0.434-0.264,0.801-0.624,1.075-1.051c0.272-0.427,0.447-0.911,0.509-1.416c0.059-0.504,0.004-1.016-0.162-1.495
	s-0.438-0.916-0.799-1.274c-0.057-0.056-0.123-0.097-0.199-0.123c-0.074-0.025-0.153-0.033-0.232-0.023
	c-0.077,0.01-0.152,0.038-0.219,0.081c-0.065,0.043-0.12,0.101-0.16,0.168c-1.367,2.271-4.16,1.783-4.307,1.762
	c-0.074-0.014-0.15-0.011-0.226,0.008c-0.073,0.019-0.142,0.054-0.2,0.102c-0.061,0.048-0.109,0.109-0.142,0.178
	c-0.032,0.07-0.052,0.145-0.052,0.222c0.002,0.575,0.149,1.139,0.434,1.64c0.281,0.5,0.688,0.92,1.18,1.22v0.488h-2.076
	c0.033-0.17,0.051-0.345,0.054-0.52c-0.003-0.354-0.063-0.706-0.183-1.041V5.843c0-1.048,0.416-2.054,1.156-2.796
	c0.74-0.742,1.745-1.159,2.793-1.161c-0.001,0-0.002,0-0.003,0h0.005c-0.001,0-0.002,0-0.002,0c1.049,0.001,2.054,0.417,2.795,1.159
	c0.743,0.742,1.159,1.749,1.159,2.798V9.483z"/>
<path d="M25.092,20.558h-4.534v4.534c0,0.242-0.096,0.472-0.266,0.643c-0.17,0.17-0.4,0.266-0.643,0.266
	c-0.239,0-0.47-0.096-0.64-0.266c-0.171-0.171-0.266-0.4-0.266-0.643v-4.534h-4.535c-0.241,0-0.471-0.096-0.641-0.265
	c-0.171-0.171-0.267-0.401-0.267-0.643c0-0.24,0.096-0.471,0.267-0.64c0.17-0.172,0.399-0.267,0.641-0.267h4.535v-4.535
	c0-0.24,0.095-0.47,0.266-0.641c0.17-0.17,0.4-0.267,0.64-0.267c0.242,0,0.473,0.097,0.643,0.267c0.17,0.171,0.266,0.4,0.266,0.641
	v4.535h4.534c0.24,0,0.471,0.095,0.643,0.267C25.903,19.18,26,19.41,26,19.65c0,0.241-0.097,0.472-0.266,0.643
	C25.563,20.462,25.332,20.558,25.092,20.558z"/>
</svg>
