<?xml version="1.0" encoding="utf-8"?>
<!-- Generator: Adobe Illustrator 15.1.0, SVG Export Plug-In . SVG Version: 6.00 Build 0)  -->
<!DOCTYPE svg PUBLIC "-//W3C//DTD SVG 1.1//EN" "http://www.w3.org/Graphics/SVG/1.1/DTD/svg11.dtd">
<svg version="1.1" id="Layer_1" xmlns="http://www.w3.org/2000/svg" xmlns:xlink="http://www.w3.org/1999/xlink" x="0px" y="0px"
	 width="30px" height="30px" viewBox="0 0 30 30" enable-background="new 0 0 30 30" xml:space="preserve">
<path fill="#18191C" d="M15,0c8.294,0,15,6.705,15,15c0,8.296-6.706,15-15,15C6.705,30,0,23.296,0,15C0,6.705,6.705,0,15,0z"/>
<path fill="#FFFFFF" d="M7.457,6.394l18.031,8.018c0.304,0.104,0.467,0.433,0.365,0.736c-0.053,0.155-0.168,0.28-0.316,0.346
	L7.461,23.604l0,0c-0.292,0.133-0.637,0.002-0.769-0.291c-0.062-0.137-0.068-0.291-0.018-0.432l2.146-6.162L18.511,15l-9.668-1.72
	L6.672,7.118C6.565,6.815,6.725,6.483,7.028,6.377C7.168,6.328,7.321,6.334,7.457,6.394z"/>
</svg>
