<?xml version="1.0" encoding="utf-8"?>
<!-- Generator: Adobe Illustrator 15.1.0, SVG Export Plug-In . SVG Version: 6.00 Build 0)  -->
<!DOCTYPE svg PUBLIC "-//W3C//DTD SVG 1.1//EN" "http://www.w3.org/Graphics/SVG/1.1/DTD/svg11.dtd">
<svg version="1.1" id="Layer_1" xmlns="http://www.w3.org/2000/svg" xmlns:xlink="http://www.w3.org/1999/xlink" x="0px" y="0px"
	 width="26px" height="26px" viewBox="0 0 26 26" enable-background="new 0 0 26 26" xml:space="preserve">
<g>
	<path d="M12.396,22.993H2.055c-0.063,0-0.125-0.024-0.17-0.069c-0.046-0.047-0.071-0.107-0.071-0.172v-1.756
		c0-1.004,0.717-1.889,1.822-2.641c1.974-1.349,5.167-2.196,8.759-2.196c0.241,0,0.472-0.097,0.642-0.267
		c0.171-0.17,0.266-0.399,0.266-0.642s-0.095-0.472-0.266-0.642c-0.17-0.172-0.4-0.267-0.642-0.267
		c-4.018,0-7.575,1.005-9.783,2.511C0.928,18.004,0,19.463,0,20.996v1.756c0,0.544,0.216,1.068,0.602,1.453
		c0.385,0.386,0.908,0.604,1.453,0.604h10.34c0.241,0,0.472-0.096,0.642-0.268c0.171-0.169,0.266-0.398,0.266-0.641
		s-0.095-0.473-0.266-0.642C12.867,23.088,12.637,22.993,12.396,22.993z M12.396,0C8.725,0,5.744,2.979,5.744,6.651
		c0,3.672,2.98,6.651,6.651,6.651c3.671,0,6.651-2.979,6.651-6.651C19.047,2.979,16.066,0,12.396,0z M12.396,1.814
		c2.67,0,4.836,2.166,4.836,4.837c0,2.669-2.166,4.837-4.836,4.837c-2.67,0-4.838-2.167-4.838-4.837
		C7.558,3.98,9.726,1.814,12.396,1.814z M19.65,15.344c-1.121,0.03-2.186,0.499-2.967,1.307c-0.779,0.805-1.219,1.881-1.219,3.002
		c0,1.119,0.438,2.199,1.219,3.004c0.781,0.804,1.846,1.271,2.967,1.306c2.377,0,4.31-1.933,4.31-4.31S22.027,15.344,19.65,15.344z
		 M19.65,17.157c1.377,0,2.496,1.118,2.496,2.493c0,1.377-1.119,2.496-2.496,2.496s-2.494-1.119-2.494-2.496
		C17.156,18.275,18.273,17.157,19.65,17.157z"/>
	<path d="M20.561,16.251v-2.042c0-0.239-0.098-0.473-0.269-0.641c-0.169-0.17-0.399-0.267-0.642-0.267
		c-0.239,0-0.471,0.096-0.641,0.267c-0.171,0.168-0.267,0.4-0.267,0.641v2.042c0,0.241,0.096,0.472,0.267,0.642
		c0.17,0.172,0.4,0.266,0.641,0.266c0.242,0,0.474-0.098,0.643-0.266C20.464,16.723,20.561,16.492,20.561,16.251z M22.697,17.887
		l1.443-1.441c0.17-0.172,0.266-0.401,0.266-0.641c0-0.242-0.096-0.472-0.266-0.642c-0.172-0.172-0.402-0.267-0.642-0.267
		c-0.24,0-0.472,0.095-0.642,0.267l-1.444,1.442c-0.168,0.17-0.265,0.401-0.265,0.641c0,0.24,0.097,0.472,0.265,0.641
		c0.172,0.17,0.401,0.268,0.644,0.268C22.297,18.152,22.527,18.057,22.697,17.887z M23.053,20.559h2.04
		c0.24,0,0.472-0.098,0.644-0.267C25.904,20.123,26,19.893,26,19.65c0-0.241-0.096-0.471-0.266-0.641s-0.401-0.267-0.643-0.267
		h-2.041c-0.24,0-0.471,0.097-0.641,0.267c-0.172,0.17-0.268,0.399-0.268,0.641c0,0.242,0.096,0.473,0.268,0.642
		C22.581,20.461,22.813,20.559,23.053,20.559z M21.414,22.699l1.443,1.441c0.086,0.084,0.185,0.149,0.295,0.194
		c0.109,0.047,0.228,0.072,0.348,0.072c0.119,0,0.236-0.025,0.348-0.072c0.109-0.045,0.209-0.11,0.295-0.194
		c0.082-0.086,0.148-0.186,0.194-0.293c0.046-0.111,0.069-0.23,0.069-0.351s-0.023-0.235-0.069-0.345
		c-0.046-0.11-0.112-0.211-0.194-0.297l-1.443-1.441c-0.172-0.169-0.401-0.268-0.641-0.268c-0.242,0-0.473,0.099-0.645,0.268
		c-0.168,0.169-0.264,0.398-0.264,0.645C21.15,22.297,21.246,22.527,21.414,22.699z M18.744,23.052v2.041
		c0,0.241,0.096,0.472,0.268,0.644c0.17,0.17,0.399,0.265,0.641,0.265c0.24,0,0.472-0.095,0.641-0.265
		c0.171-0.172,0.268-0.401,0.268-0.644v-2.041c0-0.241-0.097-0.472-0.268-0.641c-0.169-0.169-0.398-0.267-0.641-0.267
		c-0.24,0-0.471,0.098-0.641,0.267C18.84,22.58,18.744,22.811,18.744,23.052z M16.604,21.415l-1.441,1.442
		c-0.083,0.086-0.15,0.186-0.195,0.297c-0.046,0.107-0.068,0.225-0.068,0.344s0.022,0.238,0.068,0.35
		c0.045,0.108,0.112,0.209,0.195,0.295c0.085,0.082,0.186,0.148,0.294,0.193c0.11,0.047,0.229,0.072,0.349,0.072
		c0.117,0,0.235-0.025,0.346-0.072c0.111-0.045,0.211-0.111,0.295-0.193l1.443-1.442c0.17-0.173,0.266-0.402,0.266-0.642
		c0-0.244-0.096-0.475-0.266-0.644c-0.171-0.169-0.4-0.267-0.643-0.267C17.007,21.148,16.775,21.246,16.604,21.415z M16.249,18.744
		h-2.038c-0.24,0-0.475,0.097-0.643,0.267c-0.17,0.169-0.266,0.399-0.266,0.642s0.096,0.472,0.266,0.641
		c0.168,0.169,0.4,0.268,0.643,0.268h2.038c0.241,0,0.474-0.099,0.644-0.268s0.265-0.398,0.265-0.641s-0.095-0.473-0.265-0.642
		C16.723,18.841,16.49,18.744,16.249,18.744z M17.889,16.605l-1.443-1.442c-0.084-0.086-0.184-0.152-0.295-0.196
		c-0.109-0.048-0.229-0.068-0.346-0.068c-0.119,0-0.236,0.021-0.349,0.068c-0.108,0.044-0.209,0.11-0.294,0.196
		c-0.083,0.084-0.15,0.185-0.195,0.294c-0.046,0.107-0.068,0.229-0.068,0.348s0.022,0.235,0.068,0.346
		c0.045,0.108,0.112,0.209,0.195,0.295l1.441,1.441c0.172,0.17,0.402,0.268,0.643,0.268s0.472-0.098,0.643-0.268
		c0.17-0.169,0.266-0.398,0.266-0.641C18.152,17.008,18.059,16.775,17.889,16.605z"/>
</g>
</svg>
