<?xml version="1.0" encoding="utf-8"?>
<!-- Generator: Adobe Illustrator 15.1.0, SVG Export Plug-In . SVG Version: 6.00 Build 0)  -->
<!DOCTYPE svg PUBLIC "-//W3C//DTD SVG 1.1//EN" "http://www.w3.org/Graphics/SVG/1.1/DTD/svg11.dtd">
<svg version="1.1" id="Layer_1" xmlns="http://www.w3.org/2000/svg" xmlns:xlink="http://www.w3.org/1999/xlink" x="0px" y="0px"
	 width="26px" height="26px" viewBox="0 0 26 26" enable-background="new 0 0 26 26" xml:space="preserve">
<g>
	<path d="M19.951,14.389l-0.004-0.002l-4.069-1.599c-0.195-0.129-0.396-0.245-0.604-0.348v-0.91c0.76-0.577,1.29-1.445,1.426-2.438
		c0.926-0.003,1.678-0.756,1.678-1.682c0-0.472-0.194-0.896-0.505-1.202V4.873C17.872,2.187,15.687,0,12.998,0
		c-2.686,0-4.872,2.187-4.872,4.873v1.336c-0.312,0.307-0.507,0.73-0.507,1.202c0,0.926,0.753,1.679,1.677,1.682
		c0.137,0.992,0.666,1.86,1.428,2.438v0.914c-0.205,0.101-0.403,0.215-0.593,0.342l-4.075,1.601c-0.002,0-0.004,0-0.006,0.002
		c-0.085,0.033-2.079,0.881-2.079,3.209v7.991c0,0.052,0.011,0.106,0.031,0.157s0.052,0.096,0.089,0.133
		c0.038,0.039,0.084,0.068,0.133,0.09C4.274,25.988,4.327,26,4.381,26h11.604c0.055,0,0.109-0.012,0.158-0.031
		c0.049-0.021,0.094-0.051,0.135-0.09c0.036-0.037,0.067-0.082,0.087-0.133s0.031-0.105,0.031-0.157
		c0-0.055-0.012-0.107-0.031-0.158c-0.02-0.049-0.051-0.096-0.087-0.133c-0.041-0.037-0.086-0.067-0.135-0.087
		c-0.049-0.021-0.104-0.031-0.158-0.031h-4.979v-3.969c0-0.055-0.01-0.107-0.031-0.157c-0.02-0.053-0.05-0.096-0.088-0.135
		c-0.039-0.037-0.084-0.068-0.134-0.088c-0.05-0.021-0.104-0.031-0.157-0.031s-0.106,0.01-0.156,0.031
		c-0.051,0.02-0.097,0.051-0.134,0.088c-0.038,0.039-0.068,0.082-0.09,0.135c-0.02,0.05-0.031,0.103-0.031,0.157v3.969H7.897v-4.151
		c0-0.055-0.011-0.109-0.031-0.158s-0.051-0.094-0.089-0.135c-0.039-0.037-0.084-0.067-0.134-0.085
		c-0.05-0.021-0.103-0.033-0.156-0.033S7.38,20.629,7.329,20.65c-0.049,0.018-0.095,0.048-0.133,0.085
		c-0.038,0.041-0.068,0.086-0.089,0.135s-0.031,0.104-0.031,0.158v4.151H4.792v-7.582c0-1.754,1.482-2.412,1.567-2.451l2.332-0.914
		c-0.528,0.799-0.838,1.744-0.861,2.737v0.008v0.783c-0.404,0.162-0.693,0.562-0.693,1.023c0,0.609,0.496,1.104,1.104,1.104
		c0.61,0,1.104-0.495,1.104-1.104c0-0.462-0.287-0.861-0.692-1.023v-0.777c0.032-1.402,0.741-2.685,1.864-3.467l0.213-0.085
		c0.016,0.095,0.063,0.178,0.134,0.242l1.513,1.33l-2.052,1.791c-0.044,0.039-0.079,0.086-0.104,0.14
		c-0.024,0.053-0.037,0.111-0.037,0.172v2.898c0,0.227,0.185,0.411,0.411,0.411c0.228,0,0.41-0.185,0.41-0.411v-2.714l2.236-1.951
		c0.011-0.008,0.022-0.016,0.031-0.025l1.865-1.641c0.016-0.014,0.03-0.031,0.044-0.047l0.006-0.008
		c0.014-0.018,0.023-0.033,0.035-0.053c0.002-0.002,0.002-0.004,0.004-0.01c0.02-0.036,0.035-0.077,0.043-0.12
		c0-0.001,0-0.004,0-0.005l0.217,0.085c0.66,0.459,1.181,1.093,1.502,1.829h-0.117c-0.699,0-1.271,0.568-1.271,1.27v2.003
		c0,0.701,0.571,1.271,1.271,1.271c0.055,0,0.105-0.01,0.158-0.031c0.048-0.02,0.095-0.051,0.132-0.088
		c0.037-0.041,0.068-0.086,0.088-0.135c0.021-0.051,0.033-0.103,0.033-0.155c0-0.057-0.012-0.109-0.033-0.16
		c-0.02-0.049-0.051-0.094-0.088-0.131c-0.037-0.04-0.084-0.067-0.132-0.089c-0.053-0.023-0.104-0.033-0.158-0.033
		c-0.249,0-0.45-0.201-0.45-0.448v-2.003c0-0.249,0.201-0.45,0.45-0.45h1.43c0.25,0,0.45,0.201,0.45,0.45v2.003
		c0,0.247-0.2,0.448-0.45,0.448c-0.055,0-0.104,0.01-0.155,0.033c-0.049,0.021-0.094,0.049-0.133,0.089
		c-0.039,0.037-0.068,0.082-0.09,0.131c-0.021,0.051-0.031,0.104-0.031,0.16c0,0.053,0.01,0.104,0.031,0.155
		c0.021,0.049,0.051,0.094,0.09,0.135c0.039,0.037,0.084,0.068,0.133,0.088c0.051,0.021,0.101,0.031,0.155,0.031
		c0.701,0,1.271-0.569,1.271-1.271v-2.003c0-0.701-0.569-1.27-1.271-1.27h-0.429c-0.14-0.392-0.325-0.764-0.555-1.111l2.324,0.912
		c0.063,0.027,1.568,0.693,1.568,2.451v7.582h-2.283v-4.153c0-0.053-0.012-0.107-0.033-0.156c-0.02-0.051-0.051-0.094-0.088-0.135
		c-0.037-0.037-0.084-0.067-0.135-0.089c-0.049-0.018-0.103-0.029-0.157-0.029c-0.053,0-0.105,0.012-0.154,0.029
		c-0.051,0.021-0.096,0.052-0.137,0.089c-0.036,0.041-0.065,0.084-0.087,0.135c-0.021,0.049-0.031,0.104-0.031,0.156v4.153h-0.898
		c-0.053,0-0.107,0.01-0.155,0.031c-0.049,0.02-0.094,0.05-0.133,0.087s-0.068,0.084-0.09,0.133
		c-0.02,0.051-0.031,0.104-0.031,0.158c0,0.052,0.012,0.106,0.031,0.157c0.021,0.049,0.051,0.096,0.09,0.133
		c0.039,0.039,0.084,0.068,0.133,0.09C17.099,25.988,17.153,26,17.206,26h4.413c0.054,0,0.108-0.012,0.157-0.031
		c0.051-0.021,0.096-0.051,0.135-0.09c0.037-0.037,0.068-0.084,0.088-0.133c0.021-0.051,0.03-0.105,0.03-0.157v-7.991
		C22.031,15.27,20.037,14.422,19.951,14.389z M8.24,19.066c-0.073,0-0.146-0.027-0.198-0.082c-0.054-0.053-0.083-0.125-0.083-0.2
		c0-0.074,0.029-0.146,0.083-0.199c0.053-0.055,0.125-0.082,0.198-0.082c0.076,0,0.147,0.027,0.201,0.082
		c0.053,0.053,0.083,0.125,0.083,0.199c0,0.075-0.03,0.147-0.083,0.2C8.388,19.039,8.316,19.066,8.24,19.066z M17.063,6.633
		c0.044,0.021,0.083,0.042,0.122,0.069c0.006,0.004,0.012,0.008,0.014,0.012c0.217,0.156,0.358,0.41,0.358,0.697
		c0,0.461-0.364,0.84-0.822,0.86V6.55c0.004,0,0.008,0,0.012,0.001c0.02,0,0.039,0.003,0.059,0.005c0.006,0,0.012,0.002,0.02,0.003
		c0.055,0.008,0.105,0.021,0.154,0.038l0.006,0.002c0.023,0.008,0.045,0.018,0.066,0.027C17.057,6.628,17.059,6.63,17.063,6.633z
		 M9.262,8.271c-0.455-0.021-0.82-0.399-0.82-0.86c0-0.287,0.141-0.541,0.355-0.697c0.006-0.004,0.01-0.008,0.015-0.011
		c0.021-0.015,0.044-0.029,0.066-0.042c0.018-0.01,0.036-0.021,0.057-0.028C8.938,6.63,8.943,6.628,8.946,6.626
		c0.021-0.01,0.045-0.02,0.067-0.027c0.001,0,0.003-0.002,0.004-0.002c0.051-0.018,0.103-0.03,0.155-0.038
		c0.006-0.001,0.014-0.003,0.02-0.003C9.211,6.554,9.23,6.551,9.25,6.551C9.254,6.55,9.258,6.55,9.262,6.55V8.271z M9.401,5.285
		C9.356,5.324,9.322,5.371,9.298,5.424c-0.023,0.053-0.036,0.11-0.036,0.168v0.136c-0.008,0-0.018,0.001-0.025,0.002
		C9.207,5.73,9.178,5.732,9.148,5.735c-0.008,0-0.018,0.001-0.027,0.002C9.101,5.739,9.079,5.742,9.058,5.745
		c-0.005,0.001-0.01,0.002-0.015,0.003C9.01,5.753,8.979,5.758,8.946,5.766V4.873c0-2.234,1.817-4.052,4.052-4.052
		s4.051,1.817,4.051,4.052v0.893c-0.031-0.008-0.063-0.013-0.096-0.018c-0.004-0.001-0.01-0.002-0.012-0.003
		c-0.023-0.003-0.045-0.006-0.066-0.008c-0.01-0.001-0.018-0.002-0.027-0.002c-0.029-0.003-0.057-0.005-0.088-0.006
		c-0.008-0.001-0.016-0.002-0.025-0.002V5.592c0-0.104-0.041-0.203-0.11-0.279l-1.306-1.404c-0.068-0.072-0.159-0.118-0.257-0.129
		c-0.098-0.01-0.197,0.014-0.276,0.071c-0.006,0.003-0.01,0.006-0.016,0.009c-0.018,0.014-1.855,1.371-4.273,1.371
		c-0.26,0-0.52-0.015-0.774-0.046C9.664,5.178,9.605,5.183,9.551,5.2C9.495,5.218,9.443,5.246,9.401,5.285z M14.451,13.18L13,14.459
		l-1.452-1.279v-0.474c0-0.017-0.002-0.03-0.004-0.044v-0.658c0.043,0.019,0.086,0.034,0.129,0.05c0.005,0,0.009,0.004,0.014,0.006
		c0.049,0.017,0.097,0.033,0.146,0.048c0.009,0.003,0.019,0.008,0.029,0.01c0.043,0.015,0.088,0.026,0.134,0.038
		c0.015,0.005,0.028,0.009,0.041,0.013c0.043,0.011,0.084,0.02,0.125,0.028c0.019,0.004,0.037,0.009,0.056,0.012
		c0.039,0.009,0.078,0.015,0.117,0.022c0.021,0.004,0.043,0.007,0.065,0.01c0.036,0.007,0.075,0.011,0.113,0.015
		c0.022,0.003,0.046,0.006,0.069,0.009c0.039,0.003,0.08,0.007,0.121,0.01c0.021,0.001,0.042,0.002,0.062,0.003
		c0.063,0.004,0.124,0.006,0.188,0.006h0.095c0.062,0,0.124-0.002,0.185-0.006c0.021-0.001,0.042-0.002,0.063-0.003
		c0.041-0.004,0.081-0.007,0.122-0.01c0.023-0.003,0.046-0.006,0.068-0.009c0.04-0.004,0.077-0.008,0.114-0.015
		c0.023-0.003,0.043-0.007,0.063-0.01c0.039-0.008,0.078-0.014,0.117-0.022c0.02-0.003,0.039-0.008,0.057-0.012
		c0.041-0.009,0.082-0.02,0.123-0.028c0.014-0.004,0.029-0.008,0.045-0.013c0.044-0.012,0.089-0.023,0.13-0.038
		c0.012-0.002,0.021-0.007,0.031-0.01c0.049-0.016,0.096-0.031,0.146-0.048c0.004-0.002,0.008-0.006,0.014-0.006
		c0.043-0.016,0.085-0.032,0.126-0.05V13.18z M14.03,11.287l-0.002,0.001c-0.089,0.031-0.175,0.06-0.267,0.083l0,0
		c-0.041,0.011-0.086,0.021-0.126,0.029l-0.027,0.005c-0.037,0.008-0.074,0.014-0.112,0.02c-0.006,0.001-0.012,0.003-0.018,0.004
		c-0.043,0.006-0.087,0.012-0.131,0.017c-0.01,0.001-0.02,0.001-0.03,0.003c-0.034,0.004-0.068,0.005-0.104,0.009
		c-0.012,0-0.023,0-0.037,0c-0.042,0.003-0.086,0.005-0.131,0.005H12.95c-0.044,0-0.088-0.002-0.132-0.005c-0.013,0-0.023,0-0.036,0
		c-0.035-0.004-0.068-0.005-0.104-0.009c-0.01-0.002-0.021-0.002-0.029-0.003c-0.044-0.005-0.088-0.011-0.131-0.017
		c-0.006-0.001-0.011-0.003-0.017-0.003c-0.038-0.006-0.077-0.013-0.114-0.021L12.361,11.4c-0.043-0.009-0.085-0.019-0.126-0.029
		c-0.091-0.023-0.182-0.052-0.268-0.084h-0.003c-1.097-0.404-1.882-1.459-1.882-2.693V6.041c0.138,0.007,0.275,0.011,0.413,0.011
		c2.118,0,3.794-0.904,4.46-1.327l0.959,1.029v2.84C15.915,9.828,15.13,10.883,14.03,11.287z"/>
</g>
</svg>
