<svg width="30" height="30" viewBox="0 0 30 30" fill="none" xmlns="http://www.w3.org/2000/svg">
<path d="M25.9091 0H4.09091C1.83156 0 0 1.83156 0 4.09091V25.9091C0 28.1684 1.83156 30 4.09091 30H25.9091C28.1684 30 30 28.1684 30 25.9091V4.09091C30 1.83156 28.1684 0 25.9091 0Z" fill="#1C8ADB"/>
<path d="M23.1722 7.75562L22.862 7.86812L6.02448 13.9346C5.90516 13.9715 5.80145 14.0469 5.72962 14.1491C5.65778 14.2513 5.62188 14.3744 5.62753 14.4992C5.63319 14.6239 5.68008 14.7433 5.76086 14.8385C5.84164 14.9338 5.95174 14.9996 6.07391 15.0255L10.4324 16.2187L11.2455 18.6051L12.0586 20.9914C12.1053 21.1084 12.1798 21.2122 12.2758 21.2938C12.3717 21.3755 12.4861 21.4325 12.6091 21.4598C12.732 21.4872 12.8598 21.4842 12.9813 21.4509C13.1028 21.4177 13.2144 21.3554 13.3063 21.2693L15.558 19.142L19.9796 22.1403C20.5199 22.5085 21.2904 22.2357 21.4285 21.6289L24.3569 8.68971C24.5 8.0488 23.825 7.5221 23.1722 7.75562ZM21.0228 10.6278L13.4154 16.846L13.0574 17.1391C12.9788 17.2015 12.9275 17.2919 12.9143 17.3914L12.8341 18.0528L12.6143 19.9107C12.6161 19.9333 12.6088 19.9557 12.5941 19.973C12.5794 19.9903 12.5584 20.001 12.5358 20.0028C12.5132 20.0046 12.4908 19.9973 12.4736 19.9826C12.4563 19.9679 12.4456 19.947 12.4438 19.9244L11.825 18.0681L11.1858 16.1676C11.1588 16.0821 11.1624 15.9899 11.196 15.9069C11.2296 15.8238 11.2911 15.7551 11.3699 15.7124L19.2858 11.1749L20.7756 10.3227C20.9921 10.1965 21.2137 10.471 21.0228 10.6278Z" fill="white"/>
</svg>
