<svg width="30" height="30" viewBox="0 0 30 30" fill="none" xmlns="http://www.w3.org/2000/svg">
<path d="M30 22.268V7.73203C30 3.46175 26.5383 0 22.268 0L7.73203 0C3.46175 0 0 3.46175 0 7.73203V22.268C0 26.5383 3.46175 30 7.73203 30L22.268 30C26.5383 30 30 26.5383 30 22.268Z" fill="url(#paint0_linear_350_359)"/>
<path d="M29.9996 16.0225V22.2656C29.9996 24.3169 29.1847 26.2842 27.7343 27.7347C26.2838 29.1851 24.3165 30 22.2652 30H15.9857L6.55215 20.5664L6.40625 9.61758L6.95762 9.16113H23.0422L23.5936 9.61758L29.9996 16.0225Z" fill="url(#paint1_linear_350_359)"/>
<path d="M16.6771 15.3568L23.0434 9.15996C22.8989 9.10077 22.7442 9.07032 22.5881 9.07031H7.4123C7.25616 9.07026 7.1015 9.10071 6.95703 9.15996L13.3244 15.3568C13.773 15.7938 14.3745 16.0384 15.0008 16.0384C15.627 16.0384 16.2286 15.7938 16.6771 15.3568Z" fill="white"/>
<path d="M13.1039 16.007L6.40606 9.61621C6.27831 9.81099 6.21048 10.0389 6.21094 10.2719V19.7266C6.21094 20.0453 6.33755 20.351 6.56293 20.5763C6.7883 20.8017 7.09397 20.9283 7.4127 20.9283H22.5885C22.907 20.928 23.2124 20.8013 23.4375 20.5759C23.6626 20.3506 23.7891 20.0451 23.7891 19.7266V10.2719C23.7892 10.039 23.7214 9.81112 23.5939 9.61621L16.8961 16.007C16.3853 16.4947 15.7062 16.7669 15 16.7669C14.2938 16.7669 13.6147 16.4947 13.1039 16.007Z" fill="white"/>
<defs>
<linearGradient id="paint0_linear_350_359" x1="2.26465" y1="2.26465" x2="27.7354" y2="27.7354" gradientUnits="userSpaceOnUse">
<stop stop-color="#549EFF"/>
<stop offset="1" stop-color="#006DB0"/>
</linearGradient>
<linearGradient id="paint1_linear_350_359" x1="8.00176" y1="8.02031" x2="27.7256" y2="27.7441" gradientUnits="userSpaceOnUse">
<stop stop-opacity="0.35"/>
<stop offset="1" stop-opacity="0"/>
</linearGradient>
</defs>
</svg>
