<?xml version="1.0" encoding="utf-8"?>
<!-- Generator: Adobe Illustrator 15.1.0, SVG Export Plug-In . SVG Version: 6.00 Build 0)  -->
<!DOCTYPE svg PUBLIC "-//W3C//DTD SVG 1.1//EN" "http://www.w3.org/Graphics/SVG/1.1/DTD/svg11.dtd">
<svg version="1.1" id="Layer_1" xmlns="http://www.w3.org/2000/svg" xmlns:xlink="http://www.w3.org/1999/xlink" x="0px" y="0px"
	 width="41px" height="41px" viewBox="0 0 41 41" enable-background="new 0 0 41 41" xml:space="preserve">
<path fill="#85868B" d="M20.5,0C9.178,0,0,9.178,0,20.5C0,31.822,9.178,41,20.5,41c5.939,0,11.29-2.526,15.034-6.563
	c0.513-0.554,0.996-1.135,1.445-1.741C39.506,29.287,41,25.068,41,20.5C41,9.178,31.822,0,20.5,0z M20.5,38.95
	c-5.612,0-10.639-2.506-14.022-6.459C9.354,27.76,14.558,24.6,20.5,24.6c5.941,0,11.146,3.16,14.022,7.891
	C31.139,36.444,26.112,38.95,20.5,38.95z M14.35,16.4c0-3.396,2.753-6.15,6.15-6.15c3.396,0,6.15,2.753,6.15,6.15
	s-2.754,6.15-6.15,6.15S14.35,19.797,14.35,16.4z M35.844,30.75c-2.477-3.699-6.255-6.453-10.679-7.605
	c2.136-1.48,3.535-3.949,3.535-6.745c0-4.529-3.671-8.2-8.2-8.2c-4.529,0-8.2,3.671-8.2,8.2c0,2.796,1.399,5.264,3.535,6.745
	c-4.424,1.152-8.202,3.906-10.678,7.605C3.194,27.818,2.05,24.293,2.05,20.5c0-10.189,8.261-18.45,18.45-18.45
	s18.449,8.261,18.449,18.45C38.949,24.293,37.805,27.818,35.844,30.75z"/>
</svg>
