<?xml version="1.0" encoding="utf-8"?>
<!-- Generator: Adobe Illustrator 15.1.0, SVG Export Plug-In . SVG Version: 6.00 Build 0)  -->
<!DOCTYPE svg PUBLIC "-//W3C//DTD SVG 1.1//EN" "http://www.w3.org/Graphics/SVG/1.1/DTD/svg11.dtd">
<svg version="1.1" id="Layer_1" xmlns="http://www.w3.org/2000/svg" xmlns:xlink="http://www.w3.org/1999/xlink" x="0px" y="0px"
	 width="26px" height="26px" viewBox="0 0 26 26" enable-background="new 0 0 26 26" xml:space="preserve">
<g>
	<path d="M24.479,0H4.266C3.427,0,2.743,0.684,2.743,1.524v8.43c0,0.84,0.684,1.523,1.523,1.523h0.913
		c0.281,0,0.508-0.228,0.508-0.507c0-0.28-0.227-0.508-0.508-0.508H4.266c-0.28,0-0.507-0.228-0.507-0.508v-8.43
		c0-0.28,0.228-0.508,0.507-0.508h20.212c0.279,0,0.507,0.228,0.507,0.508v8.43c0,0.28-0.228,0.508-0.507,0.508h-3.399
		c-0.134,0-0.263,0.054-0.356,0.148l-1.674,1.671l-1.671-1.671c-0.096-0.095-0.225-0.148-0.359-0.148h-3.96
		c-0.037-0.097-0.08-0.192-0.127-0.283c-0.363-0.707-0.982-1.223-1.743-1.455L10.454,8.5C10.196,8.422,9.922,8.56,9.83,8.813
		l-1.154,3.19c-0.319,0.884-0.952,1.619-1.776,2.069L5.816,14.66c-0.266-0.322-0.669-0.527-1.12-0.527H1.451
		C0.651,14.131,0,14.782,0,15.58v8.969C0,25.351,0.651,26,1.451,26h3.243c0.506,0,0.953-0.261,1.211-0.653l0.518,0.203
		c0.759,0.298,1.567,0.451,2.382,0.45h6.851c1.027,0,1.864-0.836,1.864-1.864c0-0.329-0.085-0.649-0.251-0.934
		c0.757-0.237,1.306-0.945,1.306-1.779c0-0.336-0.09-0.669-0.264-0.955c0.725-0.257,1.244-0.949,1.244-1.76
		c0-0.843-0.564-1.559-1.335-1.787c0.161-0.281,0.247-0.599,0.246-0.925c0-1.028-0.836-1.865-1.864-1.865h-4.072l0.569-1.691
		c0.104-0.311,0.155-0.636,0.153-0.964h3.553l1.884,1.883c0.099,0.1,0.229,0.149,0.358,0.149c0.129,0,0.261-0.05,0.358-0.149
		l1.884-1.883h3.185c0.841,0,1.524-0.684,1.524-1.524V1.524C26,0.684,25.316,0,24.479,0z M5.13,24.55
		c0,0.239-0.196,0.436-0.436,0.436H1.451c-0.24,0-0.435-0.196-0.435-0.436v-8.97c0-0.239,0.195-0.434,0.435-0.434h1.114v6.253
		c0,0.28,0.228,0.507,0.507,0.507c0.281,0,0.507-0.227,0.507-0.507v-6.253h1.114c0.19,0,0.352,0.122,0.412,0.292
		c0.003,0.024,0.01,0.049,0.018,0.074c0.003,0.021,0.006,0.043,0.006,0.067V24.55z M16.604,15.148L16.604,15.148
		c0.468,0,0.847,0.38,0.847,0.848c0,0.469-0.379,0.848-0.847,0.848h-2.756c-0.28,0-0.508,0.229-0.508,0.508
		c0,0.283,0.228,0.51,0.508,0.51h3.845c0.467,0,0.848,0.381,0.848,0.847c0,0.469-0.381,0.849-0.848,0.849h-3.845
		c-0.28,0-0.508,0.229-0.508,0.509c0,0.278,0.228,0.507,0.508,0.507h2.863c0.468,0,0.85,0.382,0.85,0.851
		c0,0.467-0.382,0.848-0.85,0.848h-2.863c-0.28,0-0.508,0.229-0.508,0.508c0,0.28,0.228,0.509,0.508,0.509h1.809
		c0.468,0,0.849,0.38,0.849,0.849c0,0.466-0.381,0.848-0.849,0.848H8.806c-0.69,0-1.367-0.129-2.011-0.382l-0.65-0.254v-8.71
		l1.239-0.673c1.043-0.569,1.843-1.499,2.247-2.615l0.989-2.736l0.272,0.083c0.495,0.15,0.898,0.487,1.136,0.947
		c0.237,0.459,0.275,0.983,0.111,1.473l-0.795,2.361c-0.025,0.076-0.032,0.156-0.021,0.237c0.012,0.08,0.043,0.155,0.09,0.221
		s0.109,0.119,0.181,0.156c0.072,0.036,0.151,0.056,0.232,0.056H16.604L16.604,15.148z"/>
	<path d="M23.674,4.872c-0.093-0.295-0.345-0.507-0.655-0.551l-0.896-0.13L21.72,3.376c-0.139-0.279-0.415-0.451-0.728-0.451l0,0
		c-0.312,0-0.59,0.172-0.728,0.451l-0.4,0.815l-0.899,0.13c-0.308,0.045-0.56,0.257-0.653,0.553
		c-0.097,0.295-0.018,0.614,0.203,0.831l0.651,0.634l-0.153,0.896c-0.054,0.306,0.07,0.61,0.323,0.793
		c0.137,0.101,0.304,0.156,0.474,0.156c0.131,0,0.261-0.031,0.381-0.095l0.802-0.423l0.804,0.422
		c0.277,0.145,0.604,0.122,0.856-0.062c0.25-0.184,0.375-0.487,0.32-0.794L22.82,6.337l0.649-0.634
		C23.693,5.486,23.771,5.167,23.674,4.872z M22.035,5.686c-0.095,0.091-0.166,0.205-0.206,0.33
		c-0.041,0.125-0.049,0.258-0.027,0.387l0.101,0.593l-0.531-0.28c-0.117-0.061-0.246-0.093-0.377-0.093
		c-0.133,0-0.263,0.032-0.379,0.093l-0.531,0.28l0.101-0.593c0.023-0.129,0.014-0.262-0.027-0.388
		c-0.04-0.125-0.111-0.239-0.206-0.33l-0.43-0.42l0.594-0.086c0.129-0.019,0.254-0.069,0.36-0.146
		c0.105-0.078,0.193-0.18,0.25-0.298l0.267-0.54l0.266,0.54c0.059,0.118,0.145,0.22,0.25,0.298c0.107,0.077,0.231,0.127,0.361,0.146
		l0.596,0.086L22.035,5.686z M17.215,4.872c-0.097-0.295-0.348-0.507-0.655-0.551l-0.897-0.13l-0.401-0.814
		c-0.139-0.279-0.416-0.451-0.729-0.451l0,0c-0.31,0-0.587,0.172-0.728,0.451l-0.399,0.815l-0.899,0.13
		c-0.309,0.044-0.559,0.257-0.654,0.552c-0.097,0.295-0.018,0.614,0.205,0.831l0.649,0.634l-0.153,0.896
		C12.5,7.54,12.624,7.843,12.876,8.026c0.139,0.101,0.305,0.156,0.477,0.156c0.129,0,0.258-0.031,0.379-0.095l0.801-0.422
		l0.805,0.422c0.275,0.145,0.604,0.121,0.856-0.063c0.25-0.183,0.375-0.486,0.32-0.793l-0.152-0.894l0.649-0.634
		C17.233,5.486,17.313,5.167,17.215,4.872z M15.575,5.686c-0.097,0.091-0.165,0.205-0.206,0.33c-0.04,0.125-0.051,0.258-0.028,0.387
		l0.103,0.593l-0.533-0.28c-0.116-0.061-0.244-0.093-0.378-0.093c-0.132,0-0.261,0.032-0.378,0.093l-0.53,0.28l0.101-0.593
		c0.022-0.129,0.014-0.262-0.029-0.388c-0.039-0.125-0.11-0.239-0.203-0.33l-0.432-0.42l0.595-0.086
		c0.13-0.019,0.253-0.069,0.36-0.146c0.105-0.078,0.191-0.18,0.249-0.298l0.267-0.54l0.268,0.54c0.058,0.118,0.143,0.22,0.25,0.298
		c0.106,0.077,0.229,0.127,0.358,0.146l0.596,0.086L15.575,5.686z M10.756,4.872c-0.097-0.295-0.347-0.507-0.655-0.551L9.202,4.19
		L8.801,3.376C8.663,3.098,8.385,2.925,8.074,2.925l0,0c-0.312,0-0.591,0.172-0.729,0.451L6.945,4.191l-0.899,0.13
		C5.738,4.367,5.487,4.578,5.391,4.874C5.295,5.17,5.374,5.488,5.597,5.705l0.65,0.634L6.093,7.234
		C6.041,7.54,6.165,7.843,6.417,8.026c0.138,0.101,0.304,0.156,0.476,0.156c0.128,0,0.259-0.031,0.377-0.095l0.805-0.422
		l0.802,0.422c0.276,0.145,0.603,0.121,0.854-0.063c0.252-0.183,0.375-0.486,0.323-0.793L9.9,6.337l0.65-0.634
		C10.772,5.486,10.852,5.167,10.756,4.872z M9.115,5.686C9.021,5.777,8.95,5.891,8.91,6.016c-0.042,0.125-0.05,0.258-0.028,0.387
		l0.101,0.593l-0.532-0.28C8.334,6.655,8.205,6.623,8.074,6.623c-0.132,0-0.262,0.032-0.378,0.093l-0.532,0.28l0.102-0.593
		c0.022-0.129,0.012-0.262-0.028-0.388c-0.042-0.125-0.112-0.239-0.206-0.33l-0.431-0.42L7.196,5.18
		c0.13-0.019,0.254-0.069,0.36-0.146c0.107-0.078,0.192-0.18,0.25-0.298l0.267-0.54l0.266,0.54c0.059,0.118,0.145,0.22,0.251,0.298
		C8.696,5.111,8.819,5.161,8.95,5.18l0.594,0.086L9.115,5.686z M3.073,22.664c-0.28,0-0.508,0.229-0.508,0.509v0.008
		c0,0.281,0.228,0.508,0.508,0.508c0.28,0,0.508-0.227,0.508-0.508v-0.008C3.582,22.893,3.353,22.664,3.073,22.664z"/>
	<path d="M7.334,10.453c-0.281,0-0.508,0.228-0.508,0.508v0.008c0,0.281,0.228,0.508,0.508,0.508c0.28,0,0.507-0.227,0.507-0.508
		v-0.008C7.842,10.681,7.614,10.453,7.334,10.453z"/>
</g>
</svg>
