<?xml version="1.0" encoding="utf-8"?>
<!-- Generator: Adobe Illustrator 15.1.0, SVG Export Plug-In . SVG Version: 6.00 Build 0)  -->
<!DOCTYPE svg PUBLIC "-//W3C//DTD SVG 1.1//EN" "http://www.w3.org/Graphics/SVG/1.1/DTD/svg11.dtd">
<svg version="1.1" id="Layer_1" xmlns="http://www.w3.org/2000/svg" xmlns:xlink="http://www.w3.org/1999/xlink" x="0px" y="0px"
	 width="26px" height="26px" viewBox="0 0 26 26" enable-background="new 0 0 26 26" xml:space="preserve">
<path d="M25.092,20.558h-4.534v4.534c0,0.242-0.096,0.472-0.266,0.643c-0.17,0.17-0.4,0.266-0.643,0.266
	c-0.239,0-0.47-0.096-0.64-0.266c-0.171-0.171-0.266-0.4-0.266-0.643v-4.534h-4.535c-0.241,0-0.471-0.096-0.641-0.265
	c-0.171-0.171-0.267-0.401-0.267-0.643c0-0.24,0.096-0.471,0.267-0.64c0.17-0.172,0.399-0.267,0.641-0.267h4.535v-4.535
	c0-0.24,0.095-0.47,0.266-0.641c0.17-0.17,0.4-0.267,0.64-0.267c0.242,0,0.473,0.097,0.643,0.267c0.17,0.171,0.266,0.4,0.266,0.641
	v4.535h4.534c0.24,0,0.471,0.095,0.643,0.267C25.903,19.18,26,19.41,26,19.65c0,0.241-0.097,0.472-0.266,0.643
	C25.563,20.462,25.332,20.558,25.092,20.558z"/>
<path d="M17.985,14.406l-0.034-0.018l-0.004-0.002l-4.069-1.599c-0.194-0.129-0.396-0.245-0.604-0.348v-0.91
	c0.761-0.577,1.291-1.445,1.427-2.438c0.926-0.003,1.678-0.756,1.678-1.682c0-0.472-0.194-0.896-0.505-1.202V4.873
	C15.872,2.187,13.688,0,10.998,0C8.312,0,6.126,2.187,6.126,4.873v1.336c-0.312,0.307-0.507,0.73-0.507,1.202
	c0,0.926,0.753,1.679,1.677,1.682c0.137,0.992,0.666,1.86,1.428,2.438v0.914c-0.205,0.101-0.403,0.215-0.593,0.342l-4.075,1.602
	c-0.002,0-0.004,0-0.006,0.002c-0.085,0.032-2.079,0.881-2.079,3.209v7.99c0,0.053,0.011,0.105,0.031,0.157
	c0.02,0.051,0.052,0.096,0.089,0.133c0.038,0.039,0.084,0.068,0.133,0.09C2.274,25.988,2.327,26,2.381,26h13.604
	c0.056,0,0.109-0.012,0.158-0.031c0.049-0.021,0.094-0.051,0.135-0.09c0.037-0.037,0.068-0.082,0.088-0.133s0.031-0.105,0.031-0.157
	c0-0.055-0.013-0.106-0.031-0.157c-0.02-0.05-0.051-0.097-0.088-0.134c-0.041-0.037-0.086-0.067-0.135-0.087
	c-0.049-0.021-0.104-0.031-0.158-0.031H9.006v-3.969c0-0.055-0.01-0.107-0.031-0.156c-0.02-0.054-0.05-0.097-0.088-0.136
	c-0.039-0.037-0.084-0.067-0.134-0.088C8.703,20.811,8.649,20.8,8.596,20.8c-0.053,0-0.106,0.011-0.156,0.031
	c-0.051,0.021-0.097,0.051-0.134,0.088c-0.038,0.039-0.068,0.082-0.09,0.136c-0.02,0.049-0.031,0.103-0.031,0.156v3.969H5.897v-4.15
	c0-0.055-0.011-0.109-0.031-0.158s-0.051-0.094-0.089-0.135c-0.039-0.037-0.084-0.067-0.134-0.086
	c-0.05-0.021-0.103-0.032-0.156-0.032c-0.053,0-0.107,0.011-0.158,0.032c-0.049,0.018-0.095,0.048-0.133,0.084
	c-0.038,0.041-0.068,0.086-0.089,0.136c-0.021,0.049-0.031,0.104-0.031,0.157v4.152H2.792v-7.582c0-1.755,1.482-2.412,1.567-2.451
	l2.332-0.914c-0.528,0.799-0.838,1.744-0.861,2.736v0.008v0.783c-0.404,0.162-0.693,0.563-0.693,1.023
	c0,0.609,0.496,1.104,1.104,1.104c0.61,0,1.104-0.494,1.104-1.104c0-0.463-0.287-0.861-0.692-1.023v-0.777
	c0.032-1.401,0.741-2.685,1.864-3.467l0.213-0.084c0.016,0.094,0.063,0.178,0.134,0.242l1.513,1.33l-2.052,1.791
	c-0.044,0.039-0.079,0.086-0.104,0.14c-0.024,0.053-0.037,0.111-0.037,0.172v2.898c0,0.227,0.185,0.411,0.411,0.411
	c0.228,0,0.41-0.185,0.41-0.411V17.29l2.236-1.951c0.011-0.008,0.022-0.016,0.031-0.024l1.865-1.642
	c0.016-0.014,0.03-0.03,0.045-0.047l0.006-0.008c0.014-0.019,0.022-0.033,0.035-0.054c0.002-0.002,0.002-0.004,0.004-0.01
	c0.02-0.035,0.035-0.077,0.043-0.12c0-0.001,0-0.004,0-0.005l0.217,0.085c0.66,0.459,1.181,1.092,1.502,1.828h-0.117
	c-0.699,0-1.271,0.568-1.271,1.271v1.003v0.001c0,0.227,0.186,0.411,0.412,0.411s0.409-0.185,0.409-0.411v-1.003
	c0-0.249,0.201-0.45,0.45-0.45h1.43c0.25,0,0.45,0.201,0.45,0.45v1.003c0,0.227,0.186,0.411,0.412,0.411s0.409-0.185,0.409-0.411
	v-0.001v-1.003c0-0.701-0.569-1.271-1.271-1.271h-0.429c-0.14-0.392-0.325-0.764-0.556-1.111l2.324,0.912l0.025,0.019
	c0.209,0.088,0.451-0.011,0.538-0.22C18.293,14.735,18.194,14.494,17.985,14.406z M6.441,18.984
	c-0.053,0.055-0.125,0.082-0.201,0.082c-0.073,0-0.146-0.027-0.198-0.082c-0.054-0.053-0.083-0.125-0.083-0.2
	c0-0.074,0.029-0.146,0.083-0.199c0.053-0.055,0.125-0.082,0.198-0.082c0.076,0,0.147,0.027,0.201,0.082
	c0.053,0.054,0.083,0.125,0.083,0.199C6.524,18.859,6.494,18.932,6.441,18.984z M15.063,6.633c0.045,0.021,0.084,0.042,0.123,0.069
	c0.006,0.004,0.012,0.008,0.014,0.012c0.217,0.156,0.357,0.41,0.357,0.697c0,0.461-0.363,0.84-0.822,0.86V6.55
	c0.004,0,0.009,0,0.013,0.001c0.021,0,0.039,0.003,0.06,0.005c0.006,0,0.012,0.002,0.02,0.003c0.055,0.008,0.105,0.021,0.154,0.038
	l0.006,0.002c0.022,0.008,0.045,0.018,0.066,0.027C15.057,6.628,15.059,6.63,15.063,6.633z M7.262,8.271
	c-0.455-0.021-0.82-0.399-0.82-0.86c0-0.287,0.141-0.541,0.355-0.697c0.006-0.004,0.01-0.008,0.015-0.011
	c0.021-0.015,0.044-0.029,0.066-0.042c0.018-0.01,0.036-0.021,0.057-0.028C6.938,6.63,6.943,6.628,6.946,6.626
	c0.021-0.01,0.045-0.02,0.067-0.027c0.001,0,0.003-0.002,0.004-0.002c0.051-0.018,0.103-0.03,0.155-0.038
	c0.006-0.001,0.014-0.003,0.02-0.003C7.211,6.554,7.23,6.551,7.25,6.551C7.254,6.55,7.258,6.55,7.262,6.55V8.271z M7.551,5.2
	c-0.056,0.018-0.108,0.046-0.15,0.085C7.356,5.324,7.322,5.371,7.298,5.424c-0.023,0.053-0.036,0.11-0.036,0.168v0.136
	c-0.008,0-0.018,0.001-0.025,0.002c-0.03,0-0.059,0.002-0.089,0.005c-0.008,0-0.018,0.001-0.027,0.002
	c-0.02,0.002-0.042,0.005-0.063,0.008c-0.005,0.001-0.01,0.002-0.015,0.003C7.01,5.753,6.979,5.758,6.946,5.766V4.873
	c0-2.234,1.817-4.052,4.052-4.052c2.234,0,4.051,1.817,4.051,4.052v0.893c-0.031-0.008-0.063-0.013-0.096-0.018
	c-0.004-0.001-0.01-0.002-0.012-0.003c-0.023-0.003-0.045-0.006-0.066-0.008c-0.01-0.001-0.018-0.002-0.027-0.002
	c-0.029-0.003-0.057-0.005-0.088-0.006c-0.008-0.001-0.016-0.002-0.025-0.002V5.592c0-0.104-0.041-0.203-0.109-0.279l-1.307-1.404
	c-0.067-0.072-0.158-0.118-0.256-0.129c-0.099-0.01-0.197,0.014-0.276,0.071c-0.007,0.003-0.011,0.006-0.017,0.009
	c-0.018,0.014-1.854,1.371-4.272,1.371c-0.26,0-0.52-0.015-0.774-0.046C7.664,5.178,7.605,5.183,7.551,5.2z M12.452,13.18
	L12.452,13.18L11,14.459L9.548,13.18v-0.474c0-0.017-0.002-0.03-0.004-0.044v-0.658c0.043,0.019,0.086,0.034,0.129,0.05
	c0.005,0,0.009,0.004,0.014,0.006c0.049,0.017,0.097,0.033,0.146,0.048c0.009,0.003,0.019,0.008,0.029,0.01
	c0.043,0.015,0.088,0.026,0.134,0.038c0.015,0.005,0.028,0.009,0.041,0.013c0.043,0.011,0.084,0.02,0.125,0.028
	c0.019,0.004,0.037,0.009,0.056,0.012c0.039,0.009,0.078,0.015,0.117,0.022c0.021,0.004,0.043,0.007,0.065,0.01
	c0.036,0.007,0.075,0.011,0.113,0.015c0.022,0.003,0.046,0.006,0.069,0.009c0.039,0.003,0.08,0.007,0.121,0.01
	c0.021,0.001,0.042,0.002,0.062,0.003c0.063,0.004,0.124,0.006,0.188,0.006h0.095c0.062,0,0.124-0.002,0.185-0.006
	c0.021-0.001,0.042-0.002,0.063-0.003c0.041-0.004,0.081-0.007,0.122-0.01c0.023-0.003,0.046-0.006,0.068-0.009
	c0.04-0.004,0.077-0.008,0.114-0.015c0.023-0.003,0.043-0.007,0.063-0.01c0.039-0.008,0.078-0.014,0.116-0.022
	c0.021-0.003,0.039-0.008,0.058-0.012c0.041-0.009,0.082-0.021,0.123-0.028c0.015-0.004,0.028-0.008,0.045-0.013
	c0.044-0.012,0.089-0.023,0.13-0.038c0.012-0.002,0.021-0.007,0.031-0.01c0.049-0.016,0.096-0.031,0.146-0.048
	c0.004-0.002,0.008-0.006,0.014-0.006c0.043-0.016,0.085-0.032,0.126-0.05V13.18z M12.029,11.287l-0.002,0.001
	c-0.088,0.031-0.174,0.06-0.266,0.083c-0.041,0.011-0.087,0.021-0.127,0.029l-0.027,0.005c-0.037,0.008-0.073,0.014-0.111,0.02
	c-0.006,0.001-0.012,0.003-0.018,0.004c-0.043,0.006-0.087,0.012-0.131,0.017c-0.01,0.001-0.02,0.001-0.03,0.003
	c-0.034,0.004-0.068,0.005-0.104,0.009c-0.012,0-0.023,0-0.037,0c-0.042,0.003-0.086,0.005-0.131,0.005H10.95
	c-0.044,0-0.088-0.002-0.132-0.005c-0.013,0-0.023,0-0.036,0c-0.035-0.004-0.068-0.005-0.104-0.009
	c-0.01-0.002-0.021-0.002-0.029-0.003c-0.044-0.005-0.088-0.011-0.131-0.017c-0.006-0.001-0.011-0.003-0.017-0.003
	c-0.038-0.006-0.077-0.013-0.114-0.021L10.361,11.4c-0.043-0.009-0.085-0.019-0.126-0.029c-0.091-0.023-0.182-0.052-0.268-0.084
	H9.964c-1.097-0.404-1.882-1.459-1.882-2.693V6.041C8.22,6.048,8.357,6.052,8.495,6.052c2.118,0,3.794-0.904,4.46-1.327l0.959,1.029
	v2.84C13.915,9.828,13.13,10.883,12.029,11.287z"/>
</svg>
