<?xml version="1.0" encoding="utf-8"?>
<!-- Generator: Adobe Illustrator 15.1.0, SVG Export Plug-In . SVG Version: 6.00 Build 0)  -->
<!DOCTYPE svg PUBLIC "-//W3C//DTD SVG 1.1//EN" "http://www.w3.org/Graphics/SVG/1.1/DTD/svg11.dtd">
<svg version="1.1" id="Layer_1" xmlns="http://www.w3.org/2000/svg" xmlns:xlink="http://www.w3.org/1999/xlink" x="0px" y="0px"
	 width="34.996px" height="34.996px" viewBox="0 0 34.996 34.996" enable-background="new 0 0 34.996 34.996" xml:space="preserve">
<rect x="1.186" y="6.123" fill="#5892DE" width="32.625" height="22.75"/>
<path fill="#FFFFFF" d="M9.498,17.498c0-4.418,3.582-8,8-8s8,3.582,8,8s-3.582,8-8,8S9.498,21.916,9.498,17.498z M16.998,10.575
	c-0.67,0.204-1.335,0.819-1.887,1.854c-0.182,0.345-0.338,0.701-0.469,1.068h2.355V10.575z M13.588,13.498
	c0.167-0.531,0.381-1.047,0.641-1.539c0.172-0.327,0.372-0.639,0.597-0.934c-1.239,0.515-2.306,1.372-3.072,2.473H13.588z
	 M13.006,16.998c0.03-0.877,0.139-1.718,0.313-2.5h-2.146c-0.373,0.785-0.596,1.633-0.656,2.5H13.006z M14.346,14.498
	c-0.197,0.82-0.311,1.657-0.339,2.5h2.991v-2.5H14.346z M17.998,14.498v2.5h2.99c-0.027-0.843-0.141-1.68-0.338-2.5H17.998z
	 M14.008,17.998c0.027,0.843,0.141,1.68,0.338,2.5h2.652v-2.5H14.008z M17.998,17.998v2.5h2.652c0.188-0.766,0.307-1.607,0.339-2.5
	H17.998z M14.643,21.498c0.139,0.386,0.295,0.744,0.469,1.068c0.552,1.035,1.218,1.649,1.887,1.854v-2.923H14.643z M14.825,23.971
	c-0.225-0.295-0.425-0.606-0.597-0.934c-0.26-0.492-0.474-1.008-0.641-1.539h-1.835C12.52,22.599,13.586,23.456,14.825,23.971z
	 M13.318,20.498c-0.182-0.822-0.285-1.658-0.313-2.5h-2.49c0.063,0.891,0.291,1.732,0.656,2.5H13.318z M20.171,23.971
	c1.239-0.515,2.306-1.372,3.072-2.473h-1.835c-0.167,0.531-0.381,1.047-0.641,1.539C20.596,23.364,20.396,23.676,20.171,23.971z
	 M17.998,21.498v2.923c0.67-0.204,1.335-0.819,1.887-1.854c0.174-0.324,0.33-0.683,0.469-1.068H17.998z M21.678,20.498h2.146
	c0.365-0.768,0.594-1.609,0.656-2.5h-2.49C21.963,18.84,21.859,19.676,21.678,20.498z M24.48,16.998
	c-0.061-0.867-0.283-1.715-0.656-2.5h-2.146c0.174,0.782,0.282,1.623,0.313,2.5H24.48z M20.768,11.959
	c0.248,0.464,0.463,0.98,0.641,1.539h1.835c-0.767-1.101-1.833-1.958-3.072-2.473C20.389,11.311,20.589,11.624,20.768,11.959z
	 M20.354,13.498c-0.131-0.367-0.287-0.725-0.469-1.068c-0.552-1.035-1.217-1.649-1.887-1.854v2.923H20.354z"/>
</svg>
