<?xml version="1.0" encoding="utf-8"?>
<!-- Generator: Adobe Illustrator 15.1.0, SVG Export Plug-In . SVG Version: 6.00 Build 0)  -->
<!DOCTYPE svg PUBLIC "-//W3C//DTD SVG 1.1//EN" "http://www.w3.org/Graphics/SVG/1.1/DTD/svg11.dtd">
<svg version="1.1" id="Layer_1" xmlns="http://www.w3.org/2000/svg" xmlns:xlink="http://www.w3.org/1999/xlink" x="0px" y="0px"
	 width="26px" height="26px" viewBox="0 0 26 26" enable-background="new 0 0 26 26" xml:space="preserve">
<path d="M12.396,22.993H2.055c-0.063,0-0.125-0.024-0.17-0.069c-0.046-0.047-0.071-0.107-0.071-0.172v-1.756
	c0-1.004,0.717-1.889,1.822-2.641c1.974-1.349,5.167-2.196,8.759-2.196c0.241,0,0.472-0.097,0.642-0.267
	c0.171-0.17,0.266-0.399,0.266-0.642s-0.095-0.472-0.266-0.642c-0.17-0.172-0.4-0.267-0.642-0.267c-4.018,0-7.575,1.005-9.783,2.511
	C0.928,18.004,0,19.463,0,20.996v1.756c0,0.544,0.216,1.068,0.602,1.453c0.385,0.386,0.908,0.604,1.453,0.604h10.34
	c0.241,0,0.472-0.096,0.642-0.268c0.171-0.169,0.266-0.398,0.266-0.641s-0.095-0.473-0.266-0.642
	C12.867,23.088,12.637,22.993,12.396,22.993z M12.396,0C8.725,0,5.744,2.979,5.744,6.651c0,3.672,2.98,6.651,6.651,6.651
	c3.671,0,6.651-2.979,6.651-6.651C19.047,2.979,16.066,0,12.396,0z M12.396,1.814c2.67,0,4.836,2.166,4.836,4.837
	c0,2.669-2.166,4.837-4.836,4.837c-2.67,0-4.838-2.167-4.838-4.837C7.558,3.98,9.726,1.814,12.396,1.814z"/>
<path d="M25.092,20.558h-4.534v4.534c0,0.242-0.096,0.472-0.266,0.643c-0.17,0.17-0.4,0.266-0.643,0.266
	c-0.239,0-0.47-0.096-0.64-0.266c-0.171-0.171-0.266-0.4-0.266-0.643v-4.534h-4.535c-0.241,0-0.471-0.096-0.641-0.265
	c-0.171-0.171-0.267-0.401-0.267-0.643c0-0.24,0.096-0.471,0.267-0.64c0.17-0.172,0.399-0.267,0.641-0.267h4.535v-4.535
	c0-0.24,0.095-0.47,0.266-0.641c0.17-0.17,0.4-0.267,0.64-0.267c0.242,0,0.473,0.097,0.643,0.267c0.17,0.171,0.266,0.4,0.266,0.641
	v4.535h4.534c0.24,0,0.471,0.095,0.643,0.267C25.903,19.18,26,19.41,26,19.65c0,0.241-0.097,0.472-0.266,0.643
	C25.563,20.462,25.332,20.558,25.092,20.558z"/>
</svg>
