<?xml version="1.0" encoding="utf-8"?>
<!-- Generator: Adobe Illustrator 15.1.0, SVG Export Plug-In . SVG Version: 6.00 Build 0)  -->
<!DOCTYPE svg PUBLIC "-//W3C//DTD SVG 1.1//EN" "http://www.w3.org/Graphics/SVG/1.1/DTD/svg11.dtd">
<svg version="1.1" id="Layer_1" xmlns="http://www.w3.org/2000/svg" xmlns:xlink="http://www.w3.org/1999/xlink" x="0px" y="0px"
	 width="26px" height="26px" viewBox="0 0 26 26" enable-background="new 0 0 26 26" xml:space="preserve">
<g>
	<path d="M12.397,13.482L7.595,3.2C7.47,2.94,7.168,2.826,6.909,2.951C2.583,4.967-0.13,9.354,0.005,14.127
		c0.136,4.771,3.099,9.003,7.538,10.76c1.414,0.562,2.901,0.843,4.409,0.843c3.191,0,6.195-1.248,8.452-3.504
		c0.207-0.208,0.207-0.53,0-0.738L12.397,13.482z M11.961,24.699c-1.383,0-2.734-0.259-4.023-0.769
		c-4.055-1.611-6.758-5.469-6.883-9.824c-0.125-4.19,2.152-8.047,5.833-9.981l4.605,9.888c0.021,0.052,0.063,0.104,0.104,0.146
		l7.714,7.714C17.294,23.691,14.705,24.699,11.961,24.699z"/>
	<path d="M25.819,10.665c-0.676-3.836-3.192-7.111-6.727-8.764c-0.26-0.125-0.571-0.011-0.686,0.25l-4.835,10.365
		c-0.094,0.198-0.053,0.437,0.104,0.583l8.089,8.089c0.094,0.093,0.229,0.154,0.363,0.154c0.136,0,0.271-0.051,0.364-0.154
		C25.247,18.441,26.495,14.5,25.819,10.665z M22.117,20.084l-7.453-7.455l4.45-9.555c2.983,1.57,5.083,4.429,5.665,7.767
		C25.382,14.178,24.384,17.599,22.117,20.084z M17.835,1.339c-1.514-0.704-3.164-1.068-4.834-1.068s-3.32,0.364-4.834,1.068
		l4.834,10.365L17.835,1.339z"/>
</g>
</svg>
