<?xml version="1.0" encoding="utf-8"?>
<!-- Generator: Adobe Illustrator 15.1.0, SVG Export Plug-In . SVG Version: 6.00 Build 0)  -->
<!DOCTYPE svg PUBLIC "-//W3C//DTD SVG 1.1//EN" "http://www.w3.org/Graphics/SVG/1.1/DTD/svg11.dtd">
<svg version="1.1" id="Layer_1" xmlns="http://www.w3.org/2000/svg" xmlns:xlink="http://www.w3.org/1999/xlink" x="0px" y="0px"
	 width="26px" height="26px" viewBox="0 0 26 26" enable-background="new 0 0 26 26" xml:space="preserve">
<g>
	<path d="M15.139,24.338c-0.261-0.104-0.557,0.022-0.661,0.283c-0.088,0.217-0.308,0.363-0.55,0.363h-1.855
		c-0.242,0-0.464-0.146-0.551-0.363c-0.104-0.261-0.399-0.387-0.66-0.283c-0.261,0.104-0.387,0.4-0.282,0.66
		C10.823,25.607,11.409,26,12.073,26h1.855c0.663,0,1.249-0.393,1.492-1.002C15.524,24.738,15.398,24.442,15.139,24.338z"/>
	<path d="M21.102,21.723c-0.067-0.352-0.21-0.685-0.417-0.976c-0.208-0.292-0.476-0.535-0.785-0.715
		c0.115-0.094,0.222-0.197,0.318-0.31c0.238-0.276,0.413-0.6,0.514-0.949c0.102-0.35,0.125-0.718,0.07-1.077
		c-0.178-1.185-0.682-2.291-1.458-3.2c-0.577-0.678-1.291-1.228-2.093-1.615c0.978-1.043,1.577-2.444,1.577-3.982
		c0-2.663-1.795-4.914-4.238-5.608c0.333-0.397,0.514-0.894,0.514-1.418C15.104,0.84,14.265,0,13.231,0l0,0
		c-0.417,0-0.808,0.136-1.099,0.381c-0.323,0.272-0.501,0.654-0.501,1.076c0,0.28,0.228,0.508,0.508,0.508s0.508-0.228,0.508-0.508
		c0-0.121,0.047-0.221,0.14-0.3c0.109-0.092,0.267-0.142,0.444-0.142l0,0c0.473,0,0.858,0.384,0.858,0.856
		c0.001,0.158-0.03,0.313-0.091,0.459s-0.149,0.277-0.26,0.388c-0.111,0.112-0.244,0.2-0.39,0.26
		c-0.145,0.061-0.3,0.091-0.458,0.091l0,0c-0.012,0-0.024,0.001-0.037,0.002C9.707,3.15,7.171,5.734,7.171,8.898
		c0,1.539,0.6,2.939,1.578,3.982c-0.803,0.387-1.515,0.938-2.093,1.615c-0.775,0.909-1.279,2.016-1.458,3.2
		c-0.054,0.359-0.03,0.728,0.071,1.077s0.276,0.673,0.514,0.949c0.097,0.112,0.203,0.216,0.318,0.31
		c-0.309,0.179-0.577,0.423-0.784,0.715c-0.208,0.291-0.35,0.624-0.418,0.976c-0.068,0.352-0.06,0.715,0.023,1.063
		c0.084,0.349,0.242,0.676,0.463,0.958l1.087,1.39c0.439,0.562,1.107,0.863,1.784,0.863c0.385,0,0.772-0.098,1.123-0.3
		c0.968-0.559,1.383-1.762,0.965-2.798l-0.66-1.637c-0.044-0.109-0.095-0.214-0.154-0.315h3.724c0.282,0,0.508-0.228,0.508-0.508
		s-0.227-0.508-0.508-0.508H8.564v-1.07c0-0.066,0.026-0.13,0.073-0.177s0.111-0.073,0.177-0.073h8.373
		c0.066,0,0.13,0.026,0.176,0.073c0.048,0.047,0.074,0.11,0.074,0.177v1.142c-0.508,0.277-0.903,0.723-1.12,1.26l-0.659,1.637
		c-0.419,1.036-0.004,2.239,0.965,2.798c0.35,0.202,0.737,0.3,1.122,0.3c0.677,0,1.345-0.302,1.783-0.863l1.088-1.39
		c0.222-0.282,0.379-0.609,0.463-0.958S21.171,22.074,21.102,21.723z M8.187,8.898c0-2.654,2.159-4.813,4.813-4.813
		c2.654,0,4.813,2.159,4.813,4.813S15.654,13.711,13,13.711C10.346,13.711,8.187,11.552,8.187,8.898z M8.742,21.643l0.659,1.637
		c0.23,0.569,0.001,1.231-0.53,1.539c-0.532,0.307-1.22,0.174-1.599-0.311l-1.087-1.39c-0.131-0.168-0.226-0.362-0.275-0.57
		c-0.05-0.207-0.055-0.423-0.014-0.632c0.041-0.21,0.125-0.408,0.25-0.582s0.284-0.318,0.469-0.426
		c0.185-0.106,0.39-0.172,0.603-0.192c0.213-0.021,0.427,0.004,0.628,0.074c0.202,0.069,0.387,0.182,0.542,0.328
		C8.541,21.266,8.662,21.444,8.742,21.643z M17.189,16.58c-0.28,0-0.508,0.228-0.508,0.508v0.508h-7.36v-0.508
		c0-0.28-0.228-0.508-0.508-0.508s-0.508,0.228-0.508,0.508v0.614c-0.445,0.196-0.758,0.642-0.758,1.159v0.718
		c-0.386-0.039-0.743-0.225-0.996-0.519c-0.142-0.166-0.247-0.359-0.307-0.568c-0.061-0.21-0.075-0.43-0.042-0.645
		c0.291-1.933,1.579-3.529,3.388-4.226c0.959,0.694,2.138,1.104,3.41,1.104c1.273,0,2.451-0.41,3.41-1.104
		c1.81,0.696,3.098,2.293,3.389,4.226c0.032,0.215,0.018,0.435-0.042,0.645c-0.061,0.209-0.166,0.402-0.308,0.568
		c-0.253,0.294-0.61,0.479-0.996,0.519v-0.718c0-0.516-0.311-0.961-0.755-1.157v-0.616C17.697,16.808,17.471,16.58,17.189,16.58z
		 M19.815,23.118l-1.088,1.39c-0.379,0.484-1.066,0.617-1.598,0.311c-0.533-0.308-0.761-0.97-0.531-1.54l0.66-1.636
		c0.079-0.198,0.201-0.377,0.355-0.524c0.154-0.146,0.339-0.259,0.541-0.328c0.202-0.07,0.416-0.096,0.629-0.074
		c0.212,0.021,0.418,0.086,0.603,0.192c0.185,0.107,0.345,0.252,0.469,0.426c0.123,0.174,0.209,0.372,0.249,0.581
		c0.041,0.21,0.036,0.426-0.014,0.633C20.041,22.756,19.946,22.95,19.815,23.118z"/>
	<path d="M15.63,20.08c-0.095-0.095-0.226-0.148-0.359-0.148s-0.265,0.054-0.358,0.148c-0.095,0.096-0.148,0.225-0.149,0.359
		c0,0.134,0.055,0.265,0.149,0.358c0.094,0.096,0.225,0.149,0.358,0.149s0.265-0.054,0.359-0.149
		c0.095-0.094,0.148-0.225,0.148-0.358S15.725,20.175,15.63,20.08z M14.4,10.633c-0.218-0.177-0.538-0.143-0.715,0.075
		c-0.168,0.208-0.418,0.327-0.686,0.327c-0.132,0-0.262-0.028-0.38-0.086c-0.118-0.056-0.224-0.139-0.306-0.241
		c-0.177-0.218-0.497-0.251-0.715-0.075c-0.218,0.176-0.251,0.496-0.074,0.714c0.362,0.447,0.9,0.703,1.475,0.703
		c0.576,0,1.113-0.256,1.475-0.703C14.652,11.129,14.618,10.809,14.4,10.633z M11.717,8.539c-0.462-0.46-1.211-0.46-1.672,0
		c-0.198,0.199-0.198,0.52,0,0.718c0.199,0.198,0.52,0.198,0.719,0c0.03-0.031,0.072-0.048,0.117-0.048
		c0.044,0,0.086,0.018,0.116,0.048c0.048,0.047,0.104,0.085,0.165,0.11s0.128,0.039,0.194,0.039c0.067,0,0.133-0.013,0.195-0.039
		c0.062-0.025,0.117-0.063,0.165-0.11C11.915,9.059,11.915,8.738,11.717,8.539z M15.954,8.539c-0.46-0.46-1.21-0.46-1.671,0
		c-0.198,0.199-0.198,0.52,0,0.718c0.047,0.047,0.103,0.085,0.164,0.11c0.063,0.025,0.129,0.039,0.195,0.039
		s0.133-0.013,0.193-0.039c0.063-0.025,0.118-0.063,0.165-0.11c0.032-0.031,0.074-0.048,0.117-0.048
		c0.044,0,0.087,0.018,0.118,0.048c0.198,0.198,0.52,0.198,0.718,0S16.152,8.738,15.954,8.539z"/>
</g>
</svg>
