<?xml version="1.0" encoding="utf-8"?>
<!-- Generator: Adobe Illustrator 15.1.0, SVG Export Plug-In . SVG Version: 6.00 Build 0)  -->
<!DOCTYPE svg PUBLIC "-//W3C//DTD SVG 1.1//EN" "http://www.w3.org/Graphics/SVG/1.1/DTD/svg11.dtd">
<svg version="1.1" id="Layer_1" xmlns="http://www.w3.org/2000/svg" xmlns:xlink="http://www.w3.org/1999/xlink" x="0px" y="0px"
	 width="26px" height="26px" viewBox="0 0 26 26" enable-background="new 0 0 26 26" xml:space="preserve">
<path d="M6.901,20.27H1.144c-0.035,0-0.07-0.013-0.095-0.039c-0.025-0.025-0.039-0.059-0.039-0.094v-0.979
	c0-0.56,0.398-1.053,1.014-1.471c1.099-0.751,2.877-1.222,4.876-1.222c0.136,0,0.263-0.054,0.358-0.149
	c0.095-0.095,0.148-0.221,0.148-0.357c0-0.135-0.053-0.262-0.148-0.357c-0.095-0.095-0.223-0.148-0.358-0.148
	c-2.236,0-4.217,0.56-5.446,1.398C0.516,17.492,0,18.305,0,19.158v0.979c0,0.301,0.12,0.594,0.335,0.808
	c0.214,0.214,0.505,0.337,0.809,0.337H6.9c0.136,0,0.263-0.053,0.358-0.15c0.095-0.094,0.148-0.221,0.148-0.355
	c0-0.136-0.053-0.263-0.148-0.357S7.036,20.27,6.901,20.27z M6.901,7.469c-2.043,0-3.703,1.659-3.703,3.703s1.66,3.702,3.702,3.702
	c2.044,0,3.703-1.658,3.703-3.702S8.944,7.469,6.901,7.469z M6.901,8.479c1.487,0,2.693,1.206,2.693,2.693
	c0,1.485-1.206,2.692-2.693,2.692c-1.486,0-2.694-1.206-2.694-2.692C4.207,9.685,5.415,8.479,6.901,8.479z"/>
<g>
	<circle fill="none" cx="16.46" cy="8.547" r="3.392"/>
	<path fill="none" d="M23.295,17.663c0-0.002,0.001-0.004,0.001-0.007c-0.003-0.961-0.784-1.741-1.748-1.741
		c-0.966,0-1.749,0.784-1.749,1.748c0,0.483,0.195,0.921,0.513,1.238l0,0l0,0c0.315,0.315,0.75,0.511,1.23,0.512
		c0.002,0,0.005-0.001,0.007-0.001s0.004,0.001,0.006,0.001c0.479-0.002,0.913-0.196,1.228-0.511c0.001,0,0.001-0.001,0.002-0.002
		s0.002-0.001,0.002-0.002c0.314-0.314,0.509-0.749,0.51-1.229C23.296,17.667,23.295,17.665,23.295,17.663z"/>
	<path d="M16.459,13.212c2.575,0,4.664-2.09,4.664-4.665c0.001-2.575-2.089-4.664-4.663-4.664s-4.664,2.089-4.664,4.664
		S13.886,13.212,16.459,13.212z M16.46,5.155c1.873,0,3.392,1.519,3.392,3.392c0,1.872-1.519,3.393-3.392,3.393
		c-1.872,0-3.393-1.52-3.393-3.393S14.588,5.155,16.46,5.155z"/>
	<path d="M16.46,20.007H9.208c-0.044,0-0.087-0.018-0.12-0.049c-0.032-0.032-0.049-0.074-0.049-0.119v-1.232
		c0-0.704,0.502-1.324,1.278-1.852c1.384-0.945,3.623-1.539,6.142-1.539c0.17,0,0.331-0.068,0.451-0.188
		c0.119-0.119,0.187-0.279,0.187-0.45c0-0.169-0.067-0.329-0.187-0.449c-0.12-0.12-0.281-0.188-0.451-0.188
		c-2.816,0-5.312,0.705-6.86,1.762c-1.18,0.806-1.831,1.83-1.831,2.904v1.232c0,0.38,0.151,0.748,0.422,1.019
		c0.269,0.27,0.636,0.424,1.019,0.424h7.25c0.17,0,0.331-0.067,0.451-0.188c0.119-0.118,0.187-0.279,0.187-0.449
		c0-0.171-0.067-0.331-0.187-0.45C16.79,20.074,16.629,20.007,16.46,20.007z"/>
	<path d="M25.814,17.214c-0.12-0.119-0.282-0.187-0.451-0.187h-0.864c-0.078-0.361-0.223-0.697-0.417-0.998l0.613-0.613
		c0.121-0.121,0.188-0.282,0.188-0.449c0-0.17-0.066-0.332-0.188-0.45c-0.119-0.121-0.282-0.187-0.449-0.187
		c-0.168,0-0.331,0.065-0.449,0.187l-0.615,0.614c-0.3-0.194-0.636-0.339-0.996-0.417v-0.866c0-0.168-0.068-0.332-0.188-0.449
		c-0.119-0.12-0.28-0.187-0.45-0.187c-0.168,0-0.331,0.066-0.45,0.187c-0.12,0.117-0.187,0.28-0.187,0.449v0.887
		c-0.345,0.085-0.672,0.229-0.966,0.428L19.3,14.517c-0.059-0.061-0.128-0.106-0.207-0.139c-0.076-0.033-0.16-0.047-0.243-0.047
		s-0.166,0.014-0.243,0.047c-0.076,0.032-0.146,0.078-0.207,0.139c-0.059,0.059-0.104,0.129-0.136,0.207
		c-0.032,0.074-0.049,0.159-0.049,0.243c0,0.083,0.017,0.164,0.049,0.242c0.031,0.075,0.077,0.146,0.136,0.207l0.669,0.667
		c-0.18,0.292-0.31,0.61-0.383,0.944h-0.953c-0.168,0-0.333,0.068-0.451,0.187c-0.118,0.119-0.185,0.281-0.185,0.45
		c0,0.171,0.066,0.331,0.185,0.45c0.118,0.118,0.282,0.188,0.451,0.188h0.953c0.072,0.334,0.202,0.652,0.381,0.943l-0.667,0.667
		c-0.059,0.061-0.104,0.131-0.136,0.208c-0.032,0.076-0.049,0.158-0.049,0.241s0.017,0.167,0.049,0.245
		c0.031,0.076,0.077,0.146,0.136,0.207c0.061,0.057,0.131,0.104,0.207,0.136C18.683,20.982,18.767,21,18.85,21
		s0.166-0.018,0.243-0.051c0.079-0.032,0.148-0.079,0.207-0.136l0.646-0.646c0.294,0.197,0.621,0.341,0.966,0.427v0.886
		c0,0.169,0.066,0.33,0.188,0.45c0.118,0.12,0.28,0.187,0.449,0.187s0.331-0.066,0.449-0.187c0.119-0.12,0.188-0.28,0.188-0.45
		v-0.864c0.361-0.078,0.696-0.223,0.997-0.417l0.614,0.612c0.061,0.059,0.129,0.105,0.206,0.138S24.163,21,24.247,21
		s0.165-0.019,0.243-0.051c0.077-0.032,0.146-0.079,0.207-0.138c0.058-0.06,0.104-0.13,0.137-0.205
		c0.031-0.078,0.049-0.162,0.049-0.246s-0.018-0.164-0.049-0.241c-0.032-0.077-0.079-0.148-0.137-0.208l-0.614-0.613
		c0.194-0.301,0.339-0.637,0.416-0.998h0.865c0.168,0,0.33-0.067,0.451-0.188C25.934,17.994,26,17.833,26,17.663
		C26,17.495,25.934,17.333,25.814,17.214z M22.784,18.9c-0.001,0.001-0.001,0.002-0.002,0.002c-0.314,0.314-0.748,0.509-1.228,0.511
		c-0.002,0-0.004-0.001-0.006-0.001s-0.005,0.001-0.007,0.001c-0.48-0.001-0.915-0.196-1.23-0.512l0,0l0,0
		c-0.317-0.317-0.513-0.755-0.513-1.238c0-0.964,0.783-1.748,1.749-1.748c0.964,0,1.745,0.78,1.748,1.741
		c0,0.003-0.001,0.005-0.001,0.007s0.001,0.004,0.001,0.007c-0.001,0.479-0.195,0.914-0.51,1.229
		C22.786,18.899,22.785,18.899,22.784,18.9z"/>
</g>
</svg>
