<?xml version="1.0" encoding="utf-8"?>
<!-- Generator: Adobe Illustrator 15.1.0, SVG Export Plug-In . SVG Version: 6.00 Build 0)  -->
<!DOCTYPE svg PUBLIC "-//W3C//DTD SVG 1.1//EN" "http://www.w3.org/Graphics/SVG/1.1/DTD/svg11.dtd">
<svg version="1.1" id="Layer_1" xmlns="http://www.w3.org/2000/svg" xmlns:xlink="http://www.w3.org/1999/xlink" x="0px" y="0px"
	 width="227px" height="35px" viewBox="0 3.5 227 35" enable-background="new 0 3.5 227 35" xml:space="preserve">
<g>
	<path fill="#8771A7" d="M83.563,29.195c0-0.166,0.177-0.553,0.531-1.156c0.354-0.615,0.615-0.922,0.781-0.922
		c0.125,0,0.307,0.146,0.547,0.438c0.75,1,1.484,1.709,2.203,2.125c0.729,0.416,1.818,0.625,3.266,0.625
		c1.729,0,2.943-0.412,3.641-1.234c0.708-0.834,1.063-1.881,1.063-3.141c0-2.906-1.641-4.359-4.922-4.359h-1.984
		c-0.385,0-0.615-0.063-0.688-0.187c-0.073-0.125-0.109-0.51-0.109-1.156c0-0.323,0.063-0.521,0.188-0.594s0.401-0.109,0.828-0.109
		h1.375c3.052,0,4.578-1.354,4.578-4.063c0-1.448-0.307-2.438-0.922-2.969c-0.615-0.542-1.599-0.813-2.953-0.813
		c-0.979,0-1.844,0.156-2.594,0.469c-0.74,0.313-1.271,0.662-1.594,1.047c-0.323,0.375-0.62,0.719-0.891,1.031
		c-0.26,0.313-0.453,0.469-0.578,0.469c-0.146,0-0.307-0.151-0.484-0.453c-0.635-1.083-0.953-1.703-0.953-1.859
		c0-0.281,0.448-0.74,1.344-1.375s1.813-1.094,2.75-1.375c0.917-0.26,1.974-0.385,3.172-0.375c1.083,0,2.016,0.073,2.797,0.219
		s1.531,0.422,2.25,0.828c0.729,0.406,1.287,1.042,1.672,1.906s0.578,1.948,0.578,3.25c0,2.646-1.615,4.333-4.844,5.063
		c0.406,0.063,0.776,0.135,1.109,0.219s0.802,0.266,1.406,0.547c0.615,0.271,1.125,0.588,1.531,0.953
		c0.417,0.365,0.792,0.881,1.125,1.547c0.333,0.656,0.5,1.4,0.5,2.234c0,0.771-0.12,1.51-0.359,2.219
		c-0.229,0.697-0.63,1.406-1.203,2.125c-0.563,0.709-1.427,1.281-2.594,1.719c-1.156,0.438-2.547,0.656-4.172,0.656
		c-1.615,0-2.896-0.193-3.844-0.578s-1.896-1.047-2.844-1.984C83.797,29.711,83.563,29.383,83.563,29.195z M101.719,31.305
		c0,0,0.041-0.172,0.125-0.516l6.172-19.718c0.26-0.792,0.869-1.182,1.828-1.172h1.828c0.302,0,0.536,0.01,0.703,0.031
		s0.359,0.13,0.578,0.328c0.229,0.188,0.406,0.474,0.531,0.859l6.188,19.734c0.083,0.24,0.125,0.391,0.125,0.453
		c0,0.531-0.406,0.797-1.219,0.797h-1.094c-0.656,0-1.1-0.119-1.328-0.359c-0.219-0.25-0.469-0.813-0.75-1.688l-1.047-3.422h-7.75
		l-1.343,4.188c-0.084,0.303-0.172,0.525-0.266,0.672c-0.083,0.146-0.255,0.287-0.516,0.422c-0.25,0.125-0.599,0.188-1.046,0.188
		h-0.5C102.125,32.102,101.719,31.836,101.719,31.305z M107.344,24.227h6.281l-1.797-5.921c-0.792-2.625-1.239-4.297-1.344-5.016
		h-0.031c-0.104,0.729-0.521,2.318-1.25,4.766L107.344,24.227z M123.5,30.664V11.336c0-0.281,0.01-0.495,0.031-0.641
		s0.13-0.313,0.328-0.5c0.209-0.198,0.516-0.297,0.922-0.297h11.797c0.833,0,1.25,0.448,1.25,1.344c0,0.26-0.006,0.443-0.016,0.547
		s-0.047,0.26-0.109,0.469c-0.063,0.198-0.198,0.338-0.406,0.422c-0.197,0.083-0.458,0.125-0.781,0.125
		c-0.24,0-1.672-0.021-4.297-0.063c-2.615-0.042-4.275-0.063-4.984-0.063v6.594h4.641c1.281,0,2.406,0.156,3.375,0.469
		c0.979,0.302,1.729,0.677,2.25,1.125s0.938,0.984,1.25,1.609c0.322,0.615,0.531,1.178,0.625,1.688
		c0.104,0.51,0.156,1.031,0.156,1.563c0,0.75-0.1,1.453-0.297,2.109c-0.188,0.646-0.537,1.318-1.047,2.016
		c-0.51,0.688-1.317,1.234-2.422,1.641c-1.094,0.406-2.433,0.609-4.016,0.609h-6.969c-0.385,0-0.682-0.094-0.891-0.281
		c-0.197-0.197-0.313-0.375-0.344-0.531S123.5,30.924,123.5,30.664z M127.234,29.664h3.688c0.021,0,0.068,0.006,0.141,0.016
		s0.131,0.016,0.172,0.016c0.896,0,1.666-0.125,2.313-0.375c0.656-0.26,1.141-0.604,1.453-1.031s0.536-0.85,0.672-1.266
		c0.135-0.416,0.203-0.85,0.203-1.297c0-2.604-1.641-3.9-4.922-3.891c-0.042,0-0.114,0.006-0.219,0.016
		c-0.094,0.011-0.162,0.016-0.203,0.016h-3.297V29.664z M142.953,21.165c0-3.479,0.703-6.266,2.109-8.359
		c0.771-1.135,1.797-2.005,3.078-2.609c1.291-0.604,2.709-0.906,4.25-0.906c3.416,0,5.953,1.333,7.609,4
		c1.219,1.938,1.828,4.563,1.828,7.875c0,3.771-0.844,6.65-2.531,8.64c-1.646,1.938-3.947,2.906-6.906,2.906
		c-2.947,0-5.224-0.928-6.828-2.781C143.822,27.908,142.953,24.986,142.953,21.165z M146.844,20.649
		c0,2.771,0.323,4.912,0.969,6.421c0.531,1.26,1.224,2.131,2.078,2.609s1.688,0.719,2.5,0.719s1.641-0.24,2.484-0.719
		c0.854-0.479,1.553-1.334,2.094-2.563c0.635-1.51,0.953-3.666,0.953-6.468c0-2.813-0.365-4.927-1.094-6.344
		c-0.958-1.854-2.438-2.781-4.438-2.781c-1.938,0-3.391,0.875-4.359,2.625C147.24,15.534,146.844,17.701,146.844,20.649z
		 M164.656,11.305c0-0.188,0.005-0.333,0.016-0.438c0.01-0.115,0.053-0.26,0.125-0.438c0.073-0.188,0.203-0.323,0.391-0.406
		c0.197-0.083,0.459-0.125,0.781-0.125h15.703c0.553,0,0.917,0.12,1.094,0.359c0.188,0.229,0.281,0.568,0.281,1.016
		c0,0.615-0.104,1.021-0.313,1.219c-0.198,0.188-0.541,0.281-1.031,0.281h-0.219c-1.303-0.021-2.396-0.037-3.281-0.047
		c-0.885-0.01-1.469-0.021-1.75-0.031c-0.271-0.01-0.484-0.016-0.641-0.016v17.984c0,0.281-0.016,0.5-0.047,0.656
		s-0.15,0.328-0.359,0.516c-0.198,0.178-0.5,0.266-0.906,0.266h-1.109c-0.365,0-0.662-0.037-0.891-0.109
		c-0.219-0.072-0.37-0.193-0.453-0.359c-0.083-0.178-0.136-0.328-0.156-0.453c-0.011-0.135-0.016-0.328-0.016-0.578V12.68
		c-2.813,0.063-4.792,0.094-5.938,0.094c-0.303,0-0.553-0.042-0.75-0.125c-0.188-0.083-0.313-0.213-0.375-0.391
		c-0.063-0.188-0.104-0.338-0.125-0.453C164.667,11.68,164.656,11.514,164.656,11.305z M186.719,30.695V11.211
		c0-0.24,0.016-0.438,0.047-0.594c0.031-0.167,0.156-0.328,0.375-0.484c0.229-0.156,0.547-0.234,0.953-0.234h0.891
		c0.146,0,0.271,0.01,0.375,0.031c0.115,0.021,0.256,0.068,0.422,0.141c0.177,0.073,0.308,0.208,0.391,0.406
		c0.083,0.188,0.125,0.443,0.125,0.766v15.734c0,0.104-0.005,0.266-0.016,0.484c-0.01,0.219-0.016,0.381-0.016,0.484
		c0,0.084,0.006,0.225,0.016,0.422c0.011,0.188,0.016,0.334,0.016,0.438c0.042-0.49,0.198-1.135,0.469-1.938s0.713-1.9,1.328-3.297
		c0.614-1.396,1.084-2.421,1.406-3.078c0.322-0.667,0.922-1.927,1.797-3.781c1.646-3.458,2.583-5.37,2.813-5.734
		c0.406-0.656,0.875-1.005,1.406-1.047c0.125-0.021,0.276-0.031,0.453-0.031h1.438c0.427,0,0.744,0.099,0.953,0.297
		c0.219,0.188,0.338,0.349,0.359,0.484s0.031,0.344,0.031,0.625v19.484c0,0.875-0.447,1.313-1.344,1.313h-0.859
		c-0.261,0-0.469-0.016-0.625-0.047c-0.146-0.031-0.302-0.15-0.469-0.359c-0.167-0.219-0.25-0.531-0.25-0.938V14.055
		c0-0.083-0.006-0.219-0.016-0.406c-0.01-0.198-0.016-0.349-0.016-0.453c-0.042,0.365-0.15,0.844-0.328,1.438
		c-0.166,0.594-0.443,1.349-0.828,2.266c-0.386,0.917-0.734,1.729-1.047,2.438c-0.302,0.698-0.761,1.688-1.375,2.968
		c-0.604,1.281-1.052,2.225-1.344,2.828c-0.292,0.594-0.792,1.609-1.5,3.047c-0.697,1.438-1.12,2.318-1.266,2.641
		c-0.281,0.553-0.584,0.906-0.906,1.063c-0.313,0.146-0.725,0.219-1.234,0.219h-1.281c-0.428,0-0.75-0.094-0.969-0.281
		c-0.209-0.197-0.322-0.365-0.344-0.5S186.719,30.977,186.719,30.695z M207.938,30.664V11.336c0-0.573,0.099-0.953,0.297-1.141
		c0.209-0.198,0.588-0.297,1.141-0.297h0.703c0.572,0,0.947,0.104,1.125,0.313c0.188,0.198,0.281,0.563,0.281,1.094v9.25
		l9.156-9.984c0.406-0.448,0.959-0.672,1.656-0.672h1.188c0.709,0,1.063,0.203,1.063,0.609c0,0.146-0.13,0.359-0.391,0.641
		l-7.266,7.922l7.813,12.171c0,0.281-0.053,0.484-0.156,0.609s-0.219,0.197-0.344,0.219c-0.114,0.021-0.313,0.031-0.594,0.031
		h-1.234c-0.428,0-0.729-0.037-0.906-0.109c-0.166-0.072-0.359-0.281-0.578-0.625l-6.297-9.797l-3.109,3.391v5.734
		c0,0.553-0.1,0.928-0.297,1.125c-0.188,0.188-0.558,0.281-1.109,0.281h-0.703c-0.572,0-0.958-0.1-1.156-0.297
		C208.031,31.596,207.938,31.217,207.938,30.664z"/>
</g>
<g>
	
		<linearGradient id="SVGID_1_" gradientUnits="userSpaceOnUse" x1="-86.3999" y1="113.0098" x2="-44.3999" y2="113.0098" gradientTransform="matrix(1 0 0 -1 86.3999 134.0098)">
		<stop  offset="0" style="stop-color:#A6C0FE"/>
		<stop  offset="1" style="stop-color:#F68084"/>
	</linearGradient>
	<path fill="url(#SVGID_1_)" d="M15.741,26.66c-0.183-0.143-1.638-1.246-5.674-1.516c-0.222-0.018-0.446-0.176-0.643-0.309
		c-0.251-0.167-0.512-0.343-0.702-0.57c-0.309-0.369-0.658-0.681-0.951-1.092c-1.962-2.744-3.885-3.294-4.173-3.403
		c-0.383-0.186-1.85,0.042-1.145,1.024c0.044,0.007,2.244,3.106,2.386,3.354c0.253,0.438,0.539,0.615,0.807,0.923
		c0.245,0.28,0.517,0.538,0.767,0.813c0,0-1.406-0.835-1.743-1.201c-0.15-0.164-0.223-0.398-0.342-0.594
		c-0.139-0.223-0.284-0.443-0.436-0.659c-0.186-0.271-0.378-0.538-0.577-0.8c-0.254-0.333-0.519-0.658-0.781-0.985
		c-0.163-0.204-0.348-0.4-0.482-0.612c-0.665-1.054,0.095-1.685,0.817-1.764c-0.035-0.122-0.368-3.309-0.426-3.844
		c-0.166-1.537-0.33-2.675-1.208-2.984c-0.227-0.08-0.386-0.053-0.555,0.125c-0.199,0.21-0.318,1.326-0.376,2.032
		c0,0-0.384,3.786-0.292,5.553c0.05,0.947,2.983,7.465,3.827,8.472c0.842,1.008,7.436,4.82,7.436,4.82
		c0.221,0.184,1.441,1.127,1.441,2.363v2.686l7.109,0.008l0.006-2.464c0.017-0.455,0.094-0.907,0.148-1.361
		c0.155-0.519,0.031-1.497-0.042-1.876C19.114,29.102,16.074,26.918,15.741,26.66z M41.695,14.598
		c-0.058-0.706-0.176-1.821-0.376-2.031c-0.168-0.179-0.329-0.206-0.555-0.125c-0.877,0.31-1.042,1.448-1.208,2.984
		c-0.059,0.535-0.391,3.722-0.426,3.843c0.723,0.08,1.482,0.71,0.817,1.764c-0.134,0.213-0.318,0.409-0.482,0.612
		c-0.263,0.327-0.527,0.652-0.782,0.984c-0.198,0.264-0.391,0.529-0.577,0.801c-0.151,0.216-0.296,0.436-0.436,0.66
		c-0.119,0.194-0.191,0.429-0.342,0.594c-0.337,0.366-1.743,1.201-1.743,1.201c0.251-0.275,0.523-0.534,0.768-0.814
		c0.269-0.307,0.554-0.485,0.807-0.923c0.144-0.247,2.342-3.347,2.386-3.354c0.705-0.981-0.762-1.209-1.145-1.024
		c-0.287,0.108-2.21,0.66-4.173,3.404c-0.292,0.41-0.642,0.723-0.951,1.092c-0.189,0.228-0.451,0.402-0.702,0.57
		c-0.197,0.132-0.421,0.289-0.643,0.309c-4.036,0.269-5.49,1.373-5.674,1.516c-0.332,0.258-3.373,2.44-4.199,6.137
		c-0.072,0.38-0.196,1.358-0.041,1.877c0.054,0.453,0.132,0.906,0.148,1.361l0.006,2.463l7.108-0.008v-2.685
		c0-1.236,1.221-2.18,1.441-2.364c0,0,6.594-3.812,7.437-4.819c0.843-1.007,3.776-7.524,3.826-8.472
		C42.079,18.384,41.695,14.598,41.695,14.598z M25.285,23.02c3.373-3.183,7.559-7.134,8.134-10.65
		c0.403-2.487,0.009-4.536-1.173-6.092c-1.193-1.571-3.008-2.467-5.55-2.741C26.467,3.512,26.237,3.5,26.006,3.5
		c-1.798,0-3.613,0.672-5.006,1.806C19.608,4.172,17.792,3.5,15.995,3.5c-0.222,0-0.444,0.012-0.689,0.036
		c-2.542,0.273-4.357,1.17-5.55,2.741C8.573,7.833,8.179,9.883,8.583,12.37c0.575,3.517,4.762,7.468,8.134,10.65
		c0,0,1.682,1.693,2.188,2.128c0.38,0.327,1.204,0.987,2.096,0.987c0.893,0,1.717-0.66,2.097-0.987
		C23.603,24.713,25.285,23.02,25.285,23.02z M16.718,7.695c-2.148,0-3.896,1.56-3.896,3.477c0,0.279-0.11,0.547-0.308,0.745
		c-0.197,0.197-0.464,0.309-0.742,0.309c-0.279,0-0.546-0.111-0.743-0.309s-0.308-0.465-0.308-0.745c0-3.079,2.69-5.583,5.997-5.583
		c0.279,0,0.546,0.111,0.743,0.309c0.197,0.197,0.308,0.465,0.308,0.745s-0.111,0.547-0.308,0.745
		C17.264,7.584,16.997,7.695,16.718,7.695z"/>
	<linearGradient id="SVGID_2_" gradientUnits="userSpaceOnUse" x1="-208.5" y1="533.5" x2="-208.5" y2="498.5">
		<stop  offset="0" style="stop-color:#A18CD1"/>
		<stop  offset="1" style="stop-color:#FBC2EB"/>
	</linearGradient>
	<line fill="none" stroke="url(#SVGID_2_)" x1="62.5" y1="3.5" x2="62.5" y2="38.5"/>
</g>
</svg>
