<svg width="75" height="75" viewBox="0 0 75 75" fill="none" xmlns="http://www.w3.org/2000/svg">
<path d="M69.2507 42.7806H42.7923V69.2389C42.7923 70.6424 42.2348 71.9883 41.2424 72.9807C40.25 73.9731 38.9041 74.5306 37.5007 74.5306C36.0972 74.5306 34.7513 73.9731 33.7589 72.9807C32.7665 71.9883 32.209 70.6424 32.209 69.2389V42.7806H5.75065C4.34721 42.7806 3.00126 42.2231 2.00888 41.2307C1.0165 40.2383 0.458984 38.8924 0.458984 37.4889C0.458984 36.0855 1.0165 34.7395 2.00888 33.7472C3.00126 32.7548 4.34721 32.1973 5.75065 32.1973H32.209V5.73893C32.209 4.33549 32.7665 2.98954 33.7589 1.99716C34.7513 1.00478 36.0972 0.447266 37.5007 0.447266C38.9041 0.447266 40.25 1.00478 41.2424 1.99716C42.2348 2.98954 42.7923 4.33549 42.7923 5.73893V32.1973H69.2507C70.6541 32.1973 72.0001 32.7548 72.9924 33.7472C73.9848 34.7395 74.5423 36.0855 74.5423 37.4889C74.5423 38.8924 73.9848 40.2383 72.9924 41.2307C72.0001 42.2231 70.6541 42.7806 69.2507 42.7806Z" fill="#8771A7"/>
</svg>
